<?xml version="1.0" encoding="UTF-8"?>
<svg version="1.1" xmlns="http://www.w3.org/2000/svg" width="158" height="180">
<path d="M0 0 C25.41 0 50.82 0 77 0 C77 3.96 77 7.92 77 12 C77.66 12 78.32 12 79 12 C80.32 14.97 81.64 17.94 83 21 C84.32 20.34 85.64 19.68 87 19 C88.32 19 89.64 19 91 19 C90.505 18.01 90.505 18.01 90 17 C89.86584528 14.3276379 89.95681459 11.67749512 90 9 C89.01 9 88.02 9 87 9 C87.33 8.01 87.66 7.02 88 6 C90.0625 5.3125 90.0625 5.3125 92 5 C92 5.66 92 6.32 92 7 C92.66 7 93.32 7 94 7 C94.33 6.34 94.66 5.68 95 5 C98.93846154 8.32307692 98.93846154 8.32307692 99.25 11.75 C99.1675 12.4925 99.085 13.235 99 14 C98.01 13.505 98.01 13.505 97 13 C96.34 14.65 95.68 16.3 95 18 C96.65 18.66 98.3 19.32 100 20 C99.49396008 22.16874252 99.00016187 23.99967627 98 26 C99.32 25.67 100.64 25.34 102 25 C103.03635516 43.22257816 100.21452671 64.59127958 92 81 C91.0704 83.4457645 90.17477583 85.90469627 89.3125 88.375 C88.87550781 89.62023437 88.43851562 90.86546875 87.98828125 92.1484375 C87.66214844 93.08945313 87.33601563 94.03046875 87 95 C86.34 95 85.68 95 85 95 C84.5978125 96.299375 84.5978125 96.299375 84.1875 97.625 C83.02888013 100.91791964 81.61790161 103.91127875 80 107 C80.90363281 106.7834375 81.80726562 106.566875 82.73828125 106.34375 C83.91777344 106.0653125 85.09726563 105.786875 86.3125 105.5 C87.48425781 105.2215625 88.65601563 104.943125 89.86328125 104.65625 C93 104 93 104 96 104 C95.5717674 106.89057007 94.89437691 108.12872814 93 110.4375 C90.82089751 113.22947506 90 114.47006828 90 118 C91.3621158 121.24971789 92.73987046 124.36993523 96 126 C96 126.99 96 127.98 96 129 C91.38 129.33 86.76 129.66 82 130 C82 130.99 82 131.98 82 133 C80.90300781 133.40992188 79.80601563 133.81984375 78.67578125 134.2421875 C77.22134314 134.78642886 75.76691667 135.33070133 74.3125 135.875 C73.59126953 136.14441406 72.87003906 136.41382813 72.12695312 136.69140625 C71.42119141 136.95566406 70.71542969 137.21992188 69.98828125 137.4921875 C69.29226807 137.75153076 68.59625488 138.01087402 67.87915039 138.27807617 C66.40713452 138.84358883 64.95634033 139.46439573 63.515625 140.10546875 C59.20315689 141.63893955 54.66784266 142.11561451 50.15039062 142.76757812 C45.93686465 143.43951487 43.29290016 144.11772528 40 147 C37.5 147.375 37.5 147.375 35 147 C34.484375 146.5359375 33.96875 146.071875 33.4375 145.59375 C29.74430409 143.17896806 25.80389475 142.8456928 21.5 142.125 C13.38241761 140.64588388 6.46470189 138.5569244 -1 135 C-2.66217774 134.32221878 -4.32761877 133.65219876 -6 133 C-6 132.01 -6 131.02 -6 130 C-10.62 129.67 -15.24 129.34 -20 129 C-20 126 -20 126 -18.6875 124.625 C-18.130625 124.08875 -17.57375 123.5525 -17 123 C-15.08333333 120.75 -15.08333333 120.75 -14 118 C-14.66894887 114.35794505 -15.50125303 112.49874697 -18.125 109.875 C-18.74375 109.25625 -19.3625 108.6375 -20 108 C-20 106.68 -20 105.36 -20 104 C-14.76119922 104.55145271 -10.02649303 105.42922093 -5 107 C-5.433125 106.18595703 -5.433125 106.18595703 -5.875 105.35546875 C-6.24625 104.64003906 -6.6175 103.92460938 -7 103.1875 C-7.37125 102.47980469 -7.7425 101.77210937 -8.125 101.04296875 C-9 99 -9 99 -9 96 C-9.66 95.67 -10.32 95.34 -11 95 C-12.91357256 91.10776739 -14.41544992 87.03557619 -16 83 C-16.35449219 82.15050781 -16.70898438 81.30101563 -17.07421875 80.42578125 C-23.91021487 63.21420209 -26.50244795 43.36726398 -26 25 C-24.35 25.33 -22.7 25.66 -21 26 C-21.66 25.38125 -22.32 24.7625 -23 24.125 C-25 22 -25 22 -25 20 C-23.02 19.34 -21.04 18.68 -19 18 C-19.33 17.67 -19.66 17.34 -20 17 C-20.04092937 14.66702567 -20.04241723 12.33294775 -20 10 C-20.99 9.67 -21.98 9.34 -23 9 C-22.67 8.01 -22.34 7.02 -22 6 C-19.36 5.67 -16.72 5.34 -14 5 C-14 5.66 -14 6.32 -14 7 C-13.34 7 -12.68 7 -12 7 C-11.67 9.31 -11.34 11.62 -11 14 C-11.99 13.67 -12.98 13.34 -14 13 C-14.33 14.65 -14.66 16.3 -15 18 C-13.5459375 18.433125 -13.5459375 18.433125 -12.0625 18.875 C-9 20 -9 20 -8 22 C-7.34 22 -6.68 22 -6 22 C-5.731875 21.319375 -5.46375 20.63875 -5.1875 19.9375 C-4.34871876 17.8626201 -3.42257545 15.82205391 -2.4375 13.8125 C-0.47663213 9.10843986 -0.47663213 9.10843986 0 0 Z M-20 8 C-19 10 -19 10 -19 10 Z M95 9 C96 12 96 12 96 12 Z M-11 23 C-11.99 24.485 -11.99 24.485 -13 26 C-11.68 25.67 -10.36 25.34 -9 25 C-9 24.34 -9 23.68 -9 23 C-9.66 23 -10.32 23 -11 23 Z M90 26 C90 26.33 90 26.66 90 27 C92.64 27 95.28 27 98 27 C98 26.67 98 26.34 98 26 C95.36 26 92.72 26 90 26 Z " fill="#0B59A2" transform="translate(43,17)"/>
<path d="M0 0 C9.06129 7.45802858 16.0564731 17.25785834 18 29 C19.20302069 44.45547415 15.74698667 56.00553588 6.22265625 68.29296875 C-1.37333508 76.59556392 -12.90559139 82.80830405 -24.1953125 83.37109375 C-39.78496284 83.69505838 -51.22823473 81.9840635 -63 71 C-72.84529961 60.94743092 -78.14678614 50.65922909 -78.4375 36.3125 C-77.96233885 21.83493362 -71.86682014 10.92394663 -61.37890625 1.00390625 C-43.20147469 -14.30811738 -19.20860749 -13.12734362 0 0 Z " fill="#F8F3EA" transform="translate(111,50)"/>
<path d="M0 0 C9.04356078 7.44343628 16.0897759 17.26576625 18 29 C18.92428444 43.36308682 18.92428444 43.36308682 16 48 C14.68 48 13.36 48 12 48 C12.23396484 46.78183594 12.23396484 46.78183594 12.47265625 45.5390625 C14.52534508 31.76323969 13.57537349 20.9789764 5.140625 9.4609375 C-2.17810589 1.04706805 -12.10454377 -5.24428641 -23.33349609 -6.19824219 C-25.95386087 -6.33955848 -28.5635375 -6.40831806 -31.1875 -6.4375 C-32.01894531 -6.44789307 -32.85039063 -6.45828613 -33.70703125 -6.46899414 C-45.61662872 -6.29767553 -55.47344684 -1.15583346 -64 7 C-67.96827456 12.0315443 -70.66464692 16.72384053 -72 23 C-71.57589844 22.49210937 -71.15179688 21.98421875 -70.71484375 21.4609375 C-63.81918387 13.3680092 -56.53324916 5.67050651 -45.5 4.25 C-44.345 4.1675 -43.19 4.085 -42 4 C-42 3.34 -42 2.68 -42 2 C-26.15113295 1.13138587 -15.8314979 1.93538124 -3.375 12.625 C-0.53780061 15.24183439 1.49674231 17.42774249 3 21 C2.55011719 20.62488281 2.10023437 20.24976562 1.63671875 19.86328125 C-6.86849614 13.09660728 -14.85717545 9.10577795 -25.91796875 9.578125 C-32.84462068 10.52625986 -39.35143038 13.67271361 -44 19 C-48.4219684 24.9979674 -48.4219684 24.9979674 -50 32 C-49.505 31.154375 -49.01 30.30875 -48.5 29.4375 C-44.47049538 23.4075321 -38.70528015 18.7111602 -32 16 C-29.216544 15.7413972 -26.70575749 15.62288148 -23.9375 15.6875 C-23.24333984 15.68427734 -22.54917969 15.68105469 -21.83398438 15.67773438 C-17.79449139 15.71993231 -14.63439209 16.22176917 -11 18 C-11 18.33 -11 18.66 -11 19 C-12.794375 19.4021875 -12.794375 19.4021875 -14.625 19.8125 C-20.94391709 21.42013968 -25.28890729 23.43336093 -29 29 C-29 29.66 -29 30.32 -29 31 C-27.6078125 29.7934375 -27.6078125 29.7934375 -26.1875 28.5625 C-21.15820446 24.2037772 -15.86217842 24.66062574 -9.453125 24.7265625 C-3.18836946 25.22264043 0.08704686 27.82683922 4.3125 32.375 C8.24614318 37.2946764 9.29860651 41.72926331 9 48 C8.01 48.495 8.01 48.495 7 49 C7 48.34 7 47.68 7 47 C5.515 47.495 5.515 47.495 4 48 C1.42734182 48.07029121 -1.11641431 48.09370832 -3.6875 48.0625 C-4.7403418 48.05573242 -4.7403418 48.05573242 -5.81445312 48.04882812 C-7.54300538 48.03706927 -9.27151365 48.01913454 -11 48 C-11 47.34 -11 46.68 -11 46 C-11.54140625 46.32742187 -12.0828125 46.65484375 -12.640625 46.9921875 C-15.50719067 48.21664767 -17.6452987 48.19892146 -20.75 48.125 C-22.22726563 48.09792969 -22.22726563 48.09792969 -23.734375 48.0703125 C-24.48203125 48.04710937 -25.2296875 48.02390625 -26 48 C-26 46.02 -26 44.04 -26 42 C-19.565 41.505 -19.565 41.505 -13 41 C-13 40.01 -13 39.02 -13 38 C-24.55 38 -36.1 38 -48 38 C-48 38.99 -48 39.98 -48 41 C-43.71 41.33 -39.42 41.66 -35 42 C-35 43.98 -35 45.96 -35 48 C-48.86 48 -62.72 48 -77 48 C-80.03222525 35.871099 -78.21805528 24.07793844 -71.875 13.4375 C-64.28923202 2.17812112 -54.3957058 -6.37101004 -40.9765625 -9.52734375 C-26.20006277 -11.87374331 -12.33390941 -8.42911008 0 0 Z " fill="#DF4810" transform="translate(111,50)"/>
<path d="M0 0 C23.43 0 46.86 0 71 0 C71 3.63 71 7.26 71 11 C71.66 11 72.32 11 73 11 C73.34611328 11.90492187 73.34611328 11.90492187 73.69921875 12.828125 C76.43040157 19.56129867 76.43040157 19.56129867 82 24 C87.07056219 25.15449959 90.8556342 25.02887316 96 24 C95.67 29.28 95.34 34.56 95 40 C92.36 40.33 89.72 40.66 87 41 C86.505 39.02 86.505 39.02 86 37 C85.34 37 84.68 37 84 37 C86.03802135 41.06024321 86.03802135 41.06024321 90 43 C89.67 43.99 89.34 44.98 89 46 C88.01 46 87.02 46 86 46 C85.67 45.34 85.34 44.68 85 44 C83.865625 43.773125 82.73125 43.54625 81.5625 43.3125 C80.386875 42.879375 79.21125 42.44625 78 42 C76.7113522 38.86242274 76 36.39140533 76 33 C76.66 33 77.32 33 78 33 C78.33 33.66 78.66 34.32 79 35 C79.99 34.67 80.98 34.34 82 34 C82 33.01 82 32.02 82 31 C81.34 32.32 80.68 33.64 80 35 C78.9171875 33.824375 78.9171875 33.824375 77.8125 32.625 C75.16700959 30.15587562 73.39626389 29.06739722 70 28 C70.61875 28.86625 71.2375 29.7325 71.875 30.625 C73.86039497 33.77827436 75.09994085 36.39976339 76 40 C75.505 40.99 75.505 40.99 75 42 C74.46632813 41.34773438 73.93265625 40.69546875 73.3828125 40.0234375 C64.7032304 29.8421976 54.22417068 23.62994764 41 21 C27.6544065 19.93861642 15.46119072 22.3152379 5 31 C2.22592182 33.57250156 -0.41059446 36.24293511 -3 39 C-3.66 39.66 -4.32 40.32 -5 41 C-5.35338623 38.03155565 -5.5417682 35.84401782 -3.88671875 33.265625 C-2.64496832 31.79651181 -1.32662082 30.39295186 0 29 C-1.65 29 -3.3 29 -5 29 C-5 29.66 -5 30.32 -5 31 C-5.99 31.33 -6.98 31.66 -8 32 C-9.66710346 33.49985609 -9.66710346 33.49985609 -11 35 C-11.66 33.35 -12.32 31.7 -13 30 C-12 32 -11 34 -10 36 C-9.34 36 -8.68 36 -8 36 C-7.67 35.01 -7.34 34.02 -7 33 C-6 35 -6 35 -6.5 38.5 C-6.995 39.655 -7.49 40.81 -8 42 C-11.5625 43.3125 -11.5625 43.3125 -15 44 C-15.33 44.66 -15.66 45.32 -16 46 C-17.32 45.67 -18.64 45.34 -20 45 C-20 44.34 -20 43.68 -20 43 C-19.195625 42.731875 -18.39125 42.46375 -17.5625 42.1875 C-16.2940625 41.5996875 -16.2940625 41.5996875 -15 41 C-14.67 40.01 -14.34 39.02 -14 38 C-14.78375 37.278125 -15.5675 36.55625 -16.375 35.8125 C-18.84412438 33.16700959 -19.93260278 31.39626389 -21 28 C-20.81824219 28.55429687 -20.63648438 29.10859375 -20.44921875 29.6796875 C-20.19785156 30.40414062 -19.94648438 31.12859375 -19.6875 31.875 C-19.44386719 32.59429687 -19.20023438 33.31359375 -18.94921875 34.0546875 C-18.03664453 36.33994905 -18.03664453 36.33994905 -15 38 C-15 38.66 -15 39.32 -15 40 C-15.969375 40.28875 -16.93875 40.5775 -17.9375 40.875 C-21.10664203 41.64214682 -21.10664203 41.64214682 -22 44 C-22.66 44 -23.32 44 -24 44 C-25.25433458 40.23699626 -25.10695422 36.72789091 -25.0625 32.8125 C-25.05798828 32.06291016 -25.05347656 31.31332031 -25.04882812 30.54101562 C-25.03706354 28.69397617 -25.01912865 26.84697787 -25 25 C-24.03900391 25.06960937 -24.03900391 25.06960937 -23.05859375 25.140625 C-16.70163828 25.40589289 -13.1068529 24.8812082 -8 21 C-2.86906407 14.87138208 -1.28700614 7.72203685 0 0 Z " fill="#064792" transform="translate(46,20)"/>
<path d="M0 0 C1.03635516 18.22257816 -1.78547329 39.59127958 -10 56 C-10.9296 58.4457645 -11.82522417 60.90469627 -12.6875 63.375 C-13.12449219 64.62023437 -13.56148438 65.86546875 -14.01171875 67.1484375 C-14.33785156 68.08945313 -14.66398437 69.03046875 -15 70 C-15.66 70 -16.32 70 -17 70 C-17.4021875 71.299375 -17.4021875 71.299375 -17.8125 72.625 C-18.97111987 75.91791964 -20.38209839 78.91127875 -22 82 C-21.09636719 81.7834375 -20.19273438 81.566875 -19.26171875 81.34375 C-18.08222656 81.0653125 -16.90273437 80.786875 -15.6875 80.5 C-14.51574219 80.2215625 -13.34398437 79.943125 -12.13671875 79.65625 C-9 79 -9 79 -6 79 C-6.4282326 81.89057007 -7.10562309 83.12872814 -9 85.4375 C-11.17910249 88.22947506 -12 89.47006828 -12 93 C-10.6378842 96.24971789 -9.26012954 99.36993523 -6 101 C-6 101.99 -6 102.98 -6 104 C-10.62 104.33 -15.24 104.66 -20 105 C-20 105.99 -20 106.98 -20 108 C-21.09699219 108.40992188 -22.19398437 108.81984375 -23.32421875 109.2421875 C-24.77865686 109.78642886 -26.23308333 110.33070133 -27.6875 110.875 C-28.40873047 111.14441406 -29.12996094 111.41382813 -29.87304688 111.69140625 C-30.57880859 111.95566406 -31.28457031 112.21992188 -32.01171875 112.4921875 C-32.70773193 112.75153076 -33.40374512 113.01087402 -34.12084961 113.27807617 C-35.59286548 113.84358883 -37.04365967 114.46439573 -38.484375 115.10546875 C-42.79684311 116.63893955 -47.33215734 117.11561451 -51.84960938 117.76757812 C-56.06313535 118.43951487 -58.70709984 119.11772528 -62 122 C-64.5 122.375 -64.5 122.375 -67 122 C-67.82757813 121.29810547 -67.82757813 121.29810547 -68.671875 120.58203125 C-71.81818659 118.4440175 -75.07199481 117.9486767 -78.75 117.3125 C-79.79607422 117.11817383 -79.79607422 117.11817383 -80.86328125 116.91992188 C-82.57375889 116.60360067 -84.28666725 116.30047253 -86 116 C-86 115.01 -86 114.02 -86 113 C-87.11375 112.9175 -88.2275 112.835 -89.375 112.75 C-93 112 -93 112 -94.4375 110.3125 C-95.12644222 107.480182 -95.13198726 104.90371979 -95 102 C-96.65 101.67 -98.3 101.34 -100 101 C-99.67 99.35 -99.34 97.7 -99 96 C-94.32679755 95.57516341 -91.21196877 97.07875109 -87 99 C-85.00736409 99.68836513 -83.00958663 100.36281399 -81 101 C-80.67 100.34 -80.34 99.68 -80 99 C-79.67 100.32 -79.34 101.64 -79 103 C-78.67 102.67 -78.34 102.34 -78 102 C-75.34536879 101.54540142 -72.67810862 101.29756762 -70 101 C-70.62648438 100.80664062 -71.25296875 100.61328125 -71.8984375 100.4140625 C-72.71570313 100.15367187 -73.53296875 99.89328125 -74.375 99.625 C-75.18710938 99.36976563 -75.99921875 99.11453125 -76.8359375 98.8515625 C-79 98 -79 98 -81 96 C-80.37996094 96.0721875 -79.75992188 96.144375 -79.12109375 96.21875 C-64.52821 97.7481352 -47.09351194 99.01385562 -34.078125 90.8671875 C-24.5549692 82.31066781 -19.7219762 68.56627979 -15 57 C-14.29037109 55.32744141 -14.29037109 55.32744141 -13.56640625 53.62109375 C-7.04897041 37.07370993 -4.26810993 18.71962927 -4 1 C-1 0 -1 0 0 0 Z " fill="#0B63AC" transform="translate(145,42)"/>
<path d="M0 0 C2.24863906 1.70227552 4.3657887 3.49597021 6.48828125 5.3515625 C7.54015625 6.1146875 8.59203125 6.8778125 9.67578125 7.6640625 C15.53930447 13.26698469 20.46184462 21.3291867 20.75390625 29.56640625 C20.75918443 31.14062477 20.75370151 32.71491066 20.73828125 34.2890625 C20.74988281 35.46758789 20.74988281 35.46758789 20.76171875 36.66992188 C20.74625897 41.28853007 20.24556133 45.00717564 18.48828125 49.3515625 C17.49828125 49.3515625 16.50828125 49.3515625 15.48828125 49.3515625 C15.25044922 48.15660156 15.25044922 48.15660156 15.0078125 46.9375 C13.13881404 38.44956222 11.3421759 34.46747732 4.55078125 28.9765625 C-0.96205567 26.09292472 -7.50730547 26.64516094 -13.51171875 27.3515625 C-18.05863329 28.8518912 -21.34700177 31.80707948 -24.51171875 35.3515625 C-24.24350943 30.92610865 -22.4041899 28.211861 -19.54296875 25 C-15.74833483 21.92050863 -11.15343451 20.68130669 -6.51171875 19.3515625 C-13.03238226 17.178008 -21.70660816 17.21902611 -28.3203125 19.1875 C-34.93423532 22.60335615 -39.44512372 28.25166995 -43.51171875 34.3515625 C-44.17171875 34.0215625 -44.83171875 33.6915625 -45.51171875 33.3515625 C-40.99447999 23.62508245 -36.09859383 15.2968103 -25.6640625 11.24609375 C-15.30917391 8.30771768 -7.58525437 10.61254265 1.4921875 15.52734375 C3.95221789 17.0251719 6.23627227 18.56206881 8.48828125 20.3515625 C1.83363538 13.02773436 -6.77081758 5.34066503 -17.00708008 4.03271484 C-17.86068115 4.00129395 -18.71428223 3.96987305 -19.59375 3.9375 C-20.52509766 3.89882813 -21.45644531 3.86015625 -22.41601562 3.8203125 C-23.37572266 3.789375 -24.33542969 3.7584375 -25.32421875 3.7265625 C-26.30326172 3.68789063 -27.28230469 3.64921875 -28.29101562 3.609375 C-30.69773249 3.51545434 -33.10444887 3.42978049 -35.51171875 3.3515625 C-35.51171875 4.0115625 -35.51171875 4.6715625 -35.51171875 5.3515625 C-36.11757812 5.49851562 -36.7234375 5.64546875 -37.34765625 5.796875 C-48.28814624 8.72556001 -55.89152999 14.09782456 -63.51171875 22.3515625 C-64.50719393 23.35606694 -65.50558395 24.35773516 -66.51171875 25.3515625 C-65.05465551 16.42117491 -59.49553999 8.16113809 -52.33984375 2.69140625 C-37.44304017 -7.48141096 -15.83736565 -10.39404091 0 0 Z " fill="#0674C5" transform="translate(104.51171875,48.6484375)"/>
<path d="M0 0 C25.41 0 50.82 0 77 0 C77 3.96 77 7.92 77 12 C77.66 12 78.32 12 79 12 C80.32 14.97 81.64 17.94 83 21 C84.32 20.34 85.64 19.68 87 19 C88.32 19 89.64 19 91 19 C90.505 18.01 90.505 18.01 90 17 C89.86584528 14.3276379 89.95681459 11.67749512 90 9 C89.01 9 88.02 9 87 9 C87.33 8.01 87.66 7.02 88 6 C90.0625 5.3125 90.0625 5.3125 92 5 C92 5.66 92 6.32 92 7 C92.66 7 93.32 7 94 7 C94.33 6.34 94.66 5.68 95 5 C98.93846154 8.32307692 98.93846154 8.32307692 99.25 11.75 C99.1675 12.4925 99.085 13.235 99 14 C98.01 13.505 98.01 13.505 97 13 C96.34 14.65 95.68 16.3 95 18 C96.65 18.66 98.3 19.32 100 20 C99.04858057 24.07751183 98.64516445 25.56989037 95 28 C94.505 28.495 94.505 28.495 94 29 C89.4322719 29.13462778 85.28931418 28.68303327 81.625 25.8125 C78.21411632 22.15798177 76 19.08894858 76 14 C75.34 14 74.68 14 74 14 C74 10.37 74 6.74 74 3 C50.57 3 27.14 3 3 3 C2.67 6.63 2.34 10.26 2 14 C-0.25451545 20.1628623 -4.05750034 25.0550292 -9.83203125 28.23828125 C-13.54585083 29.54313678 -17.12593608 29.40354833 -21 29 C-22.71409487 59.13950148 -12.23512933 90.44660377 5 115 C4.01 115 3.02 115 2 115 C0.68359375 113.50390625 0.68359375 113.50390625 -0.5625 111.5625 C-2.30536929 108.76740279 -2.30536929 108.76740279 -5 107 C-6.0703125 105.2578125 -6.0703125 105.2578125 -7.125 103.125 C-7.65480469 102.07699219 -7.65480469 102.07699219 -8.1953125 101.0078125 C-9 99 -9 99 -9 96 C-9.66 95.67 -10.32 95.34 -11 95 C-12.91357256 91.10776739 -14.41544992 87.03557619 -16 83 C-16.35449219 82.15050781 -16.70898438 81.30101563 -17.07421875 80.42578125 C-23.91021487 63.21420209 -26.50244795 43.36726398 -26 25 C-24.35 25.33 -22.7 25.66 -21 26 C-21.66 25.38125 -22.32 24.7625 -23 24.125 C-25 22 -25 22 -25 20 C-23.02 19.34 -21.04 18.68 -19 18 C-19.33 17.67 -19.66 17.34 -20 17 C-20.04092937 14.66702567 -20.04241723 12.33294775 -20 10 C-20.99 9.67 -21.98 9.34 -23 9 C-22.67 8.01 -22.34 7.02 -22 6 C-19.36 5.67 -16.72 5.34 -14 5 C-14 5.66 -14 6.32 -14 7 C-13.34 7 -12.68 7 -12 7 C-11.67 9.31 -11.34 11.62 -11 14 C-11.99 13.67 -12.98 13.34 -14 13 C-14.33 14.65 -14.66 16.3 -15 18 C-13.5459375 18.433125 -13.5459375 18.433125 -12.0625 18.875 C-9 20 -9 20 -8 22 C-7.34 22 -6.68 22 -6 22 C-5.731875 21.319375 -5.46375 20.63875 -5.1875 19.9375 C-4.34871876 17.8626201 -3.42257545 15.82205391 -2.4375 13.8125 C-0.47663213 9.10843986 -0.47663213 9.10843986 0 0 Z M-20 8 C-19 10 -19 10 -19 10 Z M95 9 C96 12 96 12 96 12 Z M-11 23 C-11.99 24.485 -11.99 24.485 -13 26 C-11.68 25.67 -10.36 25.34 -9 25 C-9 24.34 -9 23.68 -9 23 C-9.66 23 -10.32 23 -11 23 Z " fill="#959552" transform="translate(43,17)"/>
<path d="M0 0 C1.03635516 18.22257816 -1.78547329 39.59127958 -10 56 C-10.9296 58.4457645 -11.82522417 60.90469627 -12.6875 63.375 C-13.12449219 64.62023437 -13.56148438 65.86546875 -14.01171875 67.1484375 C-14.33785156 68.08945313 -14.66398437 69.03046875 -15 70 C-15.66 70 -16.32 70 -17 70 C-17.268125 70.86625 -17.53625 71.7325 -17.8125 72.625 C-20.83870968 81.22580645 -20.83870968 81.22580645 -25 84 C-25.07089844 84.77988281 -25.14179687 85.55976562 -25.21484375 86.36328125 C-26 89 -26 89 -29.31640625 91.16796875 C-30.72272657 91.85984117 -32.13867285 92.53241181 -33.5625 93.1875 C-34.25408203 93.52974609 -34.94566406 93.87199219 -35.65820312 94.22460938 C-40.35596864 96.4793617 -44.91284993 97.88414594 -50 99 C-49.505 99.99 -49.505 99.99 -49 101 C-45.97065509 101.65772428 -45.97065509 101.65772428 -43 102 C-43 101.01 -43 100.02 -43 99 C-42.34 99 -41.68 99 -41 99 C-41 99.66 -41 100.32 -41 101 C-39.9275 100.505 -38.855 100.01 -37.75 99.5 C-34.74583192 98.11346089 -33.54065105 98 -30 98 C-29.67 99.65 -29.34 101.3 -29 103 C-30.65 103 -32.3 103 -34 103 C-34.33 103.66 -34.66 104.32 -35 105 C-36.32 105 -37.64 105 -39 105 C-39.66 105.66 -40.32 106.32 -41 107 C-41.99 106.67 -42.98 106.34 -44 106 C-44 105.34 -44 104.68 -44 104 C-44.66 104 -45.32 104 -46 104 C-45.67 105.32 -45.34 106.64 -45 108 C-46.32 108 -47.64 108 -49 108 C-49.33 108.66 -49.66 109.32 -50 110 C-51.19238281 109.98839844 -52.38476562 109.97679687 -53.61328125 109.96484375 C-55.17968594 109.95546408 -56.74609231 109.94636407 -58.3125 109.9375 C-59.49102539 109.92493164 -59.49102539 109.92493164 -60.69335938 109.91210938 C-61.8293457 109.90727539 -61.8293457 109.90727539 -62.98828125 109.90234375 C-63.68477783 109.89710693 -64.38127441 109.89187012 -65.09887695 109.88647461 C-67.22497968 109.93104009 -67.22497968 109.93104009 -70 111 C-70.99 110.67 -71.98 110.34 -73 110 C-73 109.01 -73 108.02 -73 107 C-73.66 107 -74.32 107 -75 107 C-75 106.01 -75 105.02 -75 104 C-75.66 104 -76.32 104 -77 104 C-77 103.34 -77 102.68 -77 102 C-73.535 101.505 -73.535 101.505 -70 101 C-70.62648438 100.80664062 -71.25296875 100.61328125 -71.8984375 100.4140625 C-72.71570313 100.15367187 -73.53296875 99.89328125 -74.375 99.625 C-75.18710938 99.36976563 -75.99921875 99.11453125 -76.8359375 98.8515625 C-79 98 -79 98 -81 96 C-80.37996094 96.0721875 -79.75992188 96.144375 -79.12109375 96.21875 C-64.52821 97.7481352 -47.09351194 99.01385562 -34.078125 90.8671875 C-24.5549692 82.31066781 -19.7219762 68.56627979 -15 57 C-14.29037109 55.32744141 -14.29037109 55.32744141 -13.56640625 53.62109375 C-7.04897041 37.07370993 -4.26810993 18.71962927 -4 1 C-1 0 -1 0 0 0 Z " fill="#197EC7" transform="translate(145,42)"/>
<path d="M0 0 C-0.4282326 2.89057007 -1.10562309 4.12872814 -3 6.4375 C-5.17910249 9.22947506 -6 10.47006828 -6 14 C-4.6378842 17.24971789 -3.26012954 20.36993523 0 22 C0 22.99 0 23.98 0 25 C-4.62 25.33 -9.24 25.66 -14 26 C-14 26.99 -14 27.98 -14 29 C-16.5607445 29.98397585 -19.12341492 30.96229967 -21.6875 31.9375 C-22.7693457 32.35418945 -22.7693457 32.35418945 -23.87304688 32.77929688 C-27.56271893 34.17766574 -31.08108282 35.38936004 -35 36 C-32.94907676 33.46650659 -31.50770938 32.8047813 -28.375 31.5625 C-24.88422261 30.40309472 -24.88422261 30.40309472 -24.0625 27.8125 C-24.041875 27.214375 -24.02125 26.61625 -24 26 C-25.32 26.33 -26.64 26.66 -28 27 C-28.495 24.525 -28.495 24.525 -29 22 C-28.67 22.66 -28.34 23.32 -28 24 C-26.35 24 -24.7 24 -23 24 C-23.495 21.525 -23.495 21.525 -24 19 C-24.54269531 19.2165625 -25.08539063 19.433125 -25.64453125 19.65625 C-26.35996094 19.9346875 -27.07539062 20.213125 -27.8125 20.5 C-28.52019531 20.7784375 -29.22789063 21.056875 -29.95703125 21.34375 C-32 22 -32 22 -35 22 C-35 21.34 -35 20.68 -35 20 C-35.66 20 -36.32 20 -37 20 C-37 20.99 -37 21.98 -37 23 C-39.875 23.1875 -39.875 23.1875 -43 23 C-43.66 22.01 -44.32 21.02 -45 20 C-43.80375 19.649375 -42.6075 19.29875 -41.375 18.9375 C-36.21517535 17.2422466 -31.49838389 14.84812803 -26.69873047 12.33764648 C-22.19367574 10 -22.19367574 10 -20 10 C-20 8.35 -20 6.7 -20 5 C-19.113125 4.71125 -18.22625 4.4225 -17.3125 4.125 C-15.35229724 3.45927076 -13.40523845 2.74722634 -11.5 1.9375 C-7.69471185 0.51051695 -4.0518506 0 0 0 Z " fill="#262C77" transform="translate(139,121)"/>
<path d="M0 0 C0.33 0 0.66 0 1 0 C1.10957031 1.09699219 1.21914063 2.19398437 1.33203125 3.32421875 C1.49155666 4.77871516 1.65174813 6.23313863 1.8125 7.6875 C1.88275391 8.40873047 1.95300781 9.12996094 2.02539062 9.87304688 C2.65145825 15.35739924 4.00637591 19.00637591 8 23 C12.74664764 23.55020081 17.35489311 23.01611713 22 22 C22.33 22.33 22.66 22.66 23 23 C27.05807105 23.42803183 30.7650844 23.63329005 34.4375 21.75 C37.38807278 18.44535848 38.33228851 15.05329093 39.125 10.75 C39.29257813 9.85796875 39.46015625 8.9659375 39.6328125 8.046875 C39.81457031 7.03367187 39.81457031 7.03367187 40 6 C40.495 7.485 40.495 7.485 41 9 C46.94 9 52.88 9 59 9 C54.33444996 18.33110008 44.62866586 23.13673013 35.359375 27.140625 C24.33258597 29.9614315 9.59845228 29.80419922 -0.5703125 24.54296875 C-8.2829738 19.64505683 -17.99659234 13.01022298 -21 4 C-19.02 4.99 -19.02 4.99 -17 6 C-17 6.99 -17 7.98 -17 9 C-11.39 9 -5.78 9 0 9 C0 6.03 0 3.06 0 0 Z " fill="#F2E8CD" transform="translate(60,105)"/>
<path d="M0 0 C2.64 0 5.28 0 8 0 C8 5.28 8 10.56 8 16 C9.65 16 11.3 16 13 16 C13 13.03 13 10.06 13 7 C19.75 4 19.75 4 22 4 C22.33 7.96 22.66 11.92 23 16 C23.99 16.33 24.98 16.66 26 17 C26 11.72 26 6.44 26 1 C27.65 0.67 29.3 0.34 31 0 C30.34 1.98 29.68 3.96 29 6 C30.98 5.67 32.96 5.34 35 5 C35.08160748 6.89510699 35.13946459 8.79124504 35.1875 10.6875 C35.23970703 12.27111328 35.23970703 12.27111328 35.29296875 13.88671875 C34.96063055 17.41836599 34.11678496 19.18255429 32 22 C28.86556646 24.08962236 28.12996308 24.25367554 24.5625 24.1875 C23.80066406 24.18105469 23.03882812 24.17460937 22.25390625 24.16796875 C20 24 20 24 17.83984375 23.42578125 C15.9184342 22.77521647 15.9184342 22.77521647 14 24 C12.01171875 24.2734375 12.01171875 24.2734375 9.6875 24.375 C8.92824219 24.42398438 8.16898438 24.47296875 7.38671875 24.5234375 C3.5842543 23.68950913 2.25950413 22.13555749 0 19 C-0.5930216 15.7025796 -0.47422113 12.52393139 -0.3125 9.1875 C-0.28994141 8.30384766 -0.26738281 7.42019531 -0.24414062 6.50976562 C-0.18547428 4.3391109 -0.09579979 2.1693331 0 0 Z " fill="#41156A" transform="translate(63,105)"/>
<path d="M0 0 C4.97226471 0.51437221 9.29566251 1.22280584 14 3 C15.3303125 3.433125 15.3303125 3.433125 16.6875 3.875 C19.37858476 5.18417637 20.4829425 6.44495578 22 9 C22 9.66 22 10.32 22 11 C23.32 11 24.64 11 26 11 C26 11.66 26 12.32 26 13 C27.32 13.33 28.64 13.66 30 14 C27.59563974 17.60654039 26.05320393 17.85452932 22 19 C22.33 19.99 22.66 20.98 23 22 C25.01508358 22.73323796 25.01508358 22.73323796 27 23 C27.33 25.64 27.66 28.28 28 31 C30.64 31.99 33.28 32.98 36 34 C35.67 34.99 35.34 35.98 35 37 C32.43724147 36.04235345 29.87478711 35.0839064 27.3125 34.125 C26.59126953 33.85558594 25.87003906 33.58617187 25.12695312 33.30859375 C21.40053517 31.91331397 17.68675345 30.49797083 14 29 C14 28.01 14 27.02 14 26 C7.07 25.505 7.07 25.505 0 25 C0 22 0 22 1.3125 20.625 C1.869375 20.08875 2.42625 19.5525 3 19 C4.91666667 16.75 4.91666667 16.75 6 14 C5.33105113 10.35794505 4.49874697 8.49874697 1.875 5.875 C1.25625 5.25625 0.6375 4.6375 0 4 C0 2.68 0 1.36 0 0 Z " fill="#32166D" transform="translate(23,121)"/>
<path d="M0 0 C12.21 0 24.42 0 37 0 C37.495 5.94 37.495 5.94 38 12 C36.68 12.33 35.36 12.66 34 13 C34 15.97 34 18.94 34 22 C33.67 22 33.34 22 33 22 C31.93204344 16.42289352 32.17377329 11.60563042 33 6 C30.36 6 27.72 6 25 6 C25 11.28 25 16.56 25 22 C24.67 22 24.34 22 24 22 C23.34 19.69 22.68 17.38 22 15 C21.02417969 15.08378906 20.04835938 15.16757813 19.04296875 15.25390625 C17.13451172 15.40666016 17.13451172 15.40666016 15.1875 15.5625 C13.92292969 15.66691406 12.65835938 15.77132812 11.35546875 15.87890625 C8 16 8 16 5 15 C4.33333333 13.66666667 3.66666667 12.33333333 3 11 C0.96682993 9.26574227 0.96682993 9.26574227 -1 8 C-0.67 5.36 -0.34 2.72 0 0 Z " fill="#F9D773" transform="translate(38,99)"/>
<path d="M0 0 C2 1 2 1 2.875 3.25 C4.13818288 6.33778039 5.83904073 8.47888085 8 11 C6.75 13 6.75 13 5 15 C3.68 15 2.36 15 1 15 C1.33 15.66 1.66 16.32 2 17 C2.99 17.33 3.98 17.66 5 18 C5.33 17.01 5.66 16.02 6 15 C9.5625 13.8125 9.5625 13.8125 13 13 C13.33 10.69 13.66 8.38 14 6 C13.01 6.99 12.02 7.98 11 9 C9 8 9 8 8.125 5.5625 C7.22949848 2.86394485 7.22949848 2.86394485 4.875 1.6875 C4.25625 1.460625 3.6375 1.23375 3 1 C5.3125 0.6875 5.3125 0.6875 8 1 C9.8125 3.5 9.8125 3.5 11 6 C11.66 5.01 12.32 4.02 13 3 C13.99 3 14.98 3 16 3 C16 2.34 16 1.68 16 1 C17.98 0.67 19.96 0.34 22 0 C20.47793991 2.62901288 19.15634036 4.84365964 17 7 C16.43139494 9.03087007 16.43139494 9.03087007 16.0625 11.3125 C15.28376815 15.14532082 14.0404968 17.65358524 12 21 C7.98963801 29.65873612 8.75235831 38.88453788 9.06591797 48.1875 C9 50 9 50 8 52 C7.01 51.67 6.02 51.34 5 51 C0.24068593 40.5382151 -3 27.51210378 -3 16 C-2.34 16 -1.68 16 -1 16 C-0.67 15.01 -0.34 14.02 0 13 C1.98 12.67 3.96 12.34 6 12 C5.195625 11.13375 4.39125 10.2675 3.5625 9.375 C1.03075864 6.37123907 0.28342624 3.96796738 0 0 Z " fill="#06519C" transform="translate(25,48)"/>
<path d="M0 0 C3.91211733 1.15585285 6.8745041 2.35534962 10 5 C10.66 4.01 11.32 3.02 12 2 C12.66 2.33 13.32 2.66 14 3 C13.34 4.65 12.68 6.3 12 8 C10.68 7.67 9.36 7.34 8 7 C8 6.34 8 5.68 8 5 C7.34 5 6.68 5 6 5 C6.68691621 8.17944076 7.47156347 11.11705247 9 14 C11.42389054 15.43817505 13.14598486 15.6230546 16 16 C16 16.66 16 17.32 16 18 C16.99 17.67 17.98 17.34 19 17 C19.33 16.34 19.66 15.68 20 15 C19.38125 14.87625 18.7625 14.7525 18.125 14.625 C16 14 16 14 14 12 C14 11.01 14 10.02 14 9 C14.66 9 15.32 9 16 9 C16.33 9.99 16.66 10.98 17 12 C19.31 12 21.62 12 24 12 C23.10174207 25.69843339 20.6507388 39.87057883 14 52 C13.34 52 12.68 52 12 52 C12.02094727 51.42668945 12.04189453 50.85337891 12.06347656 50.26269531 C12.41493098 39.17186156 12.69405233 29.30319067 8 19 C7.71511719 18.319375 7.43023437 17.63875 7.13671875 16.9375 C6.44191751 15.28422936 5.7222455 13.64146704 5 12 C4.505 10.4221875 4.505 10.4221875 4 8.8125 C3.01348082 6.0379148 1.80070025 4.29180032 0 2 C0 1.34 0 0.68 0 0 Z " fill="#064F9A" transform="translate(116,48)"/>
<path d="M0 0 C9.04356078 7.44343628 16.0897759 17.26576625 18 29 C18.92428444 43.36308682 18.92428444 43.36308682 16 48 C14.68 48 13.36 48 12 48 C12.23396484 46.78183594 12.23396484 46.78183594 12.47265625 45.5390625 C14.52534508 31.76323969 13.57537349 20.9789764 5.140625 9.4609375 C-2.17810589 1.04706805 -12.10454377 -5.24428641 -23.33349609 -6.19824219 C-25.95386087 -6.33955848 -28.5635375 -6.40831806 -31.1875 -6.4375 C-32.01894531 -6.44789307 -32.85039063 -6.45828613 -33.70703125 -6.46899414 C-45.61662872 -6.29767553 -55.47344684 -1.15583346 -64 7 C-68.80919743 13.30488084 -71.89522579 19.08245151 -73 27 C-74.98 27.495 -74.98 27.495 -77 28 C-75.24258169 16.40103917 -67.78538686 6.42294718 -59 -1 C-40.87183107 -14.33219745 -18.18865274 -12.43029692 0 0 Z " fill="#D0481B" transform="translate(111,50)"/>
<path d="M0 0 C1.03635516 18.22257816 -1.78547329 39.59127958 -10 56 C-10.9296 58.4457645 -11.82522417 60.90469627 -12.6875 63.375 C-13.12449219 64.62023437 -13.56148437 65.86546875 -14.01171875 67.1484375 C-14.33785156 68.08945313 -14.66398437 69.03046875 -15 70 C-15.66 70 -16.32 70 -17 70 C-17.268125 70.86625 -17.53625 71.7325 -17.8125 72.625 C-20.83870968 81.22580645 -20.83870968 81.22580645 -25 84 C-25.12375 85.2065625 -25.12375 85.2065625 -25.25 86.4375 C-25.4975 87.283125 -25.745 88.12875 -26 89 C-29.5625 90.8125 -29.5625 90.8125 -33 92 C-31.61879181 88.11448 -29.78822747 85.14390764 -27.375 81.8125 C-22.10452629 74.03592083 -18.5506628 65.6676774 -15 57 C-14.525625 55.88238281 -14.05125 54.76476562 -13.5625 53.61328125 C-7.04964947 37.06657038 -4.26807856 18.71755587 -4 1 C-1 0 -1 0 0 0 Z " fill="#C3BF3D" transform="translate(145,42)"/>
<path d="M0 0 C11.55 0 23.1 0 35 0 C35 0.99 35 1.98 35 3 C30.59085217 4.10228696 26.51617599 4.07654536 22 4 C22.08121094 4.88042969 22.16242188 5.76085937 22.24609375 6.66796875 C22.75233772 15.97665891 22.75233772 15.97665891 20.546875 18.9765625 C17.54135362 21.13599173 15.74712467 22 12 22 C12 18.37 12 14.74 12 11 C-0.21 11 -12.42 11 -25 11 C-25.33 12.32 -25.66 13.64 -26 15 C-26.66 14.34 -27.32 13.68 -28 13 C-28 12.01 -28 11.02 -28 10 C-14.47 10 -0.94 10 13 10 C13 8.02 13 6.04 13 4 C8.71 3.67 4.42 3.34 0 3 C0 2.01 0 1.02 0 0 Z " fill="#DDA662" transform="translate(63,88)"/>
<path d="M0 0 C-0.98173804 3.92695217 -2.14482118 7.61930036 -3.8125 11.3125 C-4.10769531 11.96863281 -4.40289062 12.62476562 -4.70703125 13.30078125 C-6.57272678 15.75267719 -8.01443174 16.22731228 -11 17 C-13.82919184 16.983374 -16.50760291 16.87566104 -19.3125 16.625 C-20.05306641 16.56828125 -20.79363281 16.5115625 -21.55664062 16.453125 C-23.37193743 16.31258589 -25.18611597 16.15772905 -27 16 C-27.33 18.31 -27.66 20.62 -28 23 C-28.33 23 -28.66 23 -29 23 C-29 19.37 -29 15.74 -29 12 C-29.66 11.67 -30.32 11.34 -31 11 C-28.06298842 9.25737313 -25.11869153 7.53013441 -22.16015625 5.82421875 C-20.36310307 4.78685925 -18.57327347 3.73605329 -16.80859375 2.64453125 C-11.31482853 -0.5324478 -6.23742139 -0.41277053 0 0 Z " fill="#F6DC87" transform="translate(127,98)"/>
<path d="M0 0 C23.43 0 46.86 0 71 0 C71 2.64 71 5.28 71 8 C68.36 8.99 65.72 9.98 63 11 C64.12451727 8.0280615 65.22293791 5.66559313 67 3 C66.38125 3.825 65.7625 4.65 65.125 5.5 C63.19092993 7.49013007 62.23749193 7.96918044 59.44140625 8.33203125 C56.9444847 8.31432259 54.48710565 8.21731991 52 8 C52 7.67 52 7.34 52 7 C54.31 7 56.62 7 59 7 C59 6.34 59 5.68 59 5 C57.68 5 56.36 5 55 5 C55 4.34 55 3.68 55 3 C54.01 3.33 53.02 3.66 52 4 C49.26982729 3.74891646 46.58794263 3.43719167 43.875 3.0625 C37.8691645 2.29273262 32.06664306 1.67500126 26 2 C25.67 2.33 25.34 2.66 25 3 C23.36086721 3.32723159 21.71301361 3.61110301 20.0625 3.875 C9.31331754 5.70730872 9.31331754 5.70730872 0 11 C-1.15299221 6.64425167 -0.80558057 4.83348343 0 0 Z " fill="#11338A" transform="translate(46,20)"/>
<path d="M0 0 C0 0.66 0 1.32 0 2 C-4.625 4.125 -4.625 4.125 -8 3 C-8 4.32 -8 5.64 -8 7 C-6.68 6.67 -5.36 6.34 -4 6 C-4 6.66 -4 7.32 -4 8 C-0.7 8 2.6 8 6 8 C6 8.33 6 8.66 6 9 C1.05 9 -3.9 9 -9 9 C-9 9.66 -9 10.32 -9 11 C-9.60585937 11.14695312 -10.21171875 11.29390625 -10.8359375 11.4453125 C-21.77642749 14.37399751 -29.37981124 19.74626206 -37 28 C-37.99547518 29.00450444 -38.9938652 30.00617266 -40 31 C-38.54293676 22.06961241 -32.98382124 13.80957559 -25.828125 8.33984375 C-17.15727981 2.41864577 -10.45084346 -0.17713294 0 0 Z " fill="#422073" transform="translate(78,43)"/>
<path d="M0 0 C0.66 0 1.32 0 2 0 C2.06993164 0.62753174 2.13986328 1.25506348 2.21191406 1.90161133 C4.88274668 25.47321205 8.78705196 47.26985641 18.9375 68.875 C19.34436035 69.74302246 19.7512207 70.61104492 20.17041016 71.50537109 C22.99331329 77.3469792 26.2683237 82.69518966 30 88 C29.01 88 28.02 88 27 88 C25.68359375 86.50390625 25.68359375 86.50390625 24.4375 84.5625 C22.69463071 81.76740279 22.69463071 81.76740279 20 80 C18.9296875 78.2578125 18.9296875 78.2578125 17.875 76.125 C17.34519531 75.07699219 17.34519531 75.07699219 16.8046875 74.0078125 C16 72 16 72 16 69 C15.34 68.67 14.68 68.34 14 68 C12.08642744 64.10776739 10.58455008 60.03557619 9 56 C8.64550781 55.15050781 8.29101562 54.30101562 7.92578125 53.42578125 C1.16504798 36.40369789 -0.33959077 18.14923991 0 0 Z " fill="#BEB95A" transform="translate(18,44)"/>
<path d="M0 0 C0 0.66 0 1.32 0 2 C0.66 2 1.32 2 2 2 C2.33 1.34 2.66 0.68 3 0 C6.93846154 3.32307692 6.93846154 3.32307692 7.25 6.75 C7.1675 7.4925 7.085 8.235 7 9 C6.34 8.67 5.68 8.34 5 8 C4.34 9.65 3.68 11.3 3 13 C5.475 13.99 5.475 13.99 8 15 C7.04858057 19.07751183 6.64516445 20.56989037 3 23 C2.67 23.33 2.34 23.66 2 24 C0.47480724 23.91062197 -1.04681929 23.75462854 -2.5625 23.5625 C-3.38878906 23.46066406 -4.21507812 23.35882813 -5.06640625 23.25390625 C-5.70449219 23.17011719 -6.34257812 23.08632813 -7 23 C-6.67 22.34 -6.34 21.68 -6 21 C-7.65 19.68 -9.3 18.36 -11 17 C-10.67 16.34 -10.34 15.68 -10 15 C-9.34 15 -8.68 15 -8 15 C-5.66508361 14.67794257 -3.33157492 14.34541851 -1 14 C-1.33 13.34 -1.66 12.68 -2 12 C-2.13415472 9.3276379 -2.04318541 6.67749512 -2 4 C-2.99 4 -3.98 4 -5 4 C-4.67 3.01 -4.34 2.02 -4 1 C-2 0 -2 0 0 0 Z M3 4 C4 7 4 7 4 7 Z " fill="#AB9AA6" transform="translate(135,22)"/>
<path d="M0 0 C11.73052421 -0.74875686 21.45697948 1.26142217 30.671875 8.828125 C31.11015625 9.21484375 31.5484375 9.6015625 32 10 C31.67 10.66 31.34 11.32 31 12 C25.68972746 10.53967505 21.53669968 8.01679014 17 5 C16.67 5.99 16.34 6.98 16 8 C16 7.01 16 6.02 16 5 C15.01 5.33 14.02 5.66 13 6 C13 5.34 13 4.68 13 4 C10.36 3.67 7.72 3.34 5 3 C5 3.99 5 4.98 5 6 C6.65 6.33 8.3 6.66 10 7 C10 7.66 10 8.32 10 9 C7.74971671 8.85860519 5.49977794 8.71171997 3.25 8.5625 C1.37054688 8.44068359 1.37054688 8.44068359 -0.546875 8.31640625 C-3.18317553 8.07484478 -5.48037294 7.75716066 -8 7 C-8 5.68 -8 4.36 -8 3 C-5.36 2.67 -2.72 2.34 0 2 C0 1.34 0 0.68 0 0 Z " fill="#215293" transform="translate(78,43)"/>
<path d="M0 0 C0 0.66 0 1.32 0 2 C0.66 2 1.32 2 2 2 C2.33 4.31 2.66 6.62 3 9 C2.01 8.67 1.02 8.34 0 8 C-0.33 9.65 -0.66 11.3 -1 13 C0.98 13.66 2.96 14.32 5 15 C5 18 5 18 2.9375 20.25 C0 22 0 22 -3.5625 22 C-7.22537061 20.93443764 -8.71868258 20.011339 -11 17 C-11 16.34 -11 15.68 -11 15 C-9.02 14.34 -7.04 13.68 -5 13 C-5.33 12.67 -5.66 12.34 -6 12 C-6.04092937 9.66702567 -6.04241723 7.33294775 -6 5 C-6.99 4.67 -7.98 4.34 -9 4 C-8.67 3.01 -8.34 2.02 -8 1 C-5.07175348 0.02391783 -3.04386724 -0.08226668 0 0 Z M-6 3 C-5 5 -5 5 -5 5 Z " fill="#AB9CAC" transform="translate(29,22)"/>
<path d="M0 0 C1.11761719 -0.00515625 2.23523438 -0.0103125 3.38671875 -0.015625 C6.3125 0.25 6.3125 0.25 9.3125 2.25 C5.6825 2.25 2.0525 2.25 -1.6875 2.25 C-2.0175 2.91 -2.3475 3.57 -2.6875 4.25 C-0.7075 4.91 1.2725 5.57 3.3125 6.25 C3.3125 6.58 3.3125 6.91 3.3125 7.25 C2.47847656 7.26417969 1.64445312 7.27835937 0.78515625 7.29296875 C-8.03718804 7.66688254 -14.32071562 8.95026797 -20.72265625 15.25390625 C-23.30004736 18.12767088 -25.54541366 21.03687049 -27.6875 24.25 C-28.3475 23.92 -29.0075 23.59 -29.6875 23.25 C-25.15677829 13.49448857 -20.27457374 5.29328306 -9.8828125 1.125 C-6.45605282 0.18662082 -3.54732202 -0.01648001 0 0 Z " fill="#1E4B89" transform="translate(88.6875,58.75)"/>
<path d="M0 0 C0.495 2.475 0.495 2.475 1 5 C-0.65 5 -2.3 5 -4 5 C-4.33 5.66 -4.66 6.32 -5 7 C-6.32 7 -7.64 7 -9 7 C-9.66 7.66 -10.32 8.32 -11 9 C-11.99 8.67 -12.98 8.34 -14 8 C-14 7.34 -14 6.68 -14 6 C-14.66 6 -15.32 6 -16 6 C-15.67 7.32 -15.34 8.64 -15 10 C-21.03554548 10.69260358 -26.92406438 11.11251733 -33 11 C-33.33 9.35 -33.66 7.7 -34 6 C-30.92382812 5.70703125 -30.92382812 5.70703125 -27.84765625 5.4140625 C-27.23792969 5.27742187 -26.62820312 5.14078125 -26 5 C-25.67 4.34 -25.34 3.68 -25 3 C-24.01 3.66 -23.02 4.32 -22 5 C-22 4.34 -22 3.68 -22 3 C-19.03 3.33 -16.06 3.66 -13 4 C-13 3.01 -13 2.02 -13 1 C-12.34 1 -11.68 1 -11 1 C-11 1.66 -11 2.32 -11 3 C-9.9275 2.505 -8.855 2.01 -7.75 1.5 C-4.74583192 0.11346089 -3.54065105 0 0 0 Z " fill="#8EBAD7" transform="translate(115,140)"/>
<path d="M0 0 C0.99 0 1.98 0 3 0 C3 0.66 3 1.32 3 2 C4.32 2.33 5.64 2.66 7 3 C4.59563974 6.60654039 3.05320393 6.85452932 -1 8 C-0.67 8.99 -0.34 9.98 0 11 C2.01508358 11.73323796 2.01508358 11.73323796 4 12 C4.33 14.64 4.66 17.28 5 20 C7.64 20.99 10.28 21.98 13 23 C12.67 23.99 12.34 24.98 12 26 C9.7251355 25.23970843 7.45564343 24.4673838 5.1875 23.6875 C4.54490234 23.47416016 3.90230469 23.26082031 3.24023438 23.04101562 C-2.930428 20.89886858 -2.930428 20.89886858 -5 18 C-6.58576513 11.4129756 -5.37440796 8.34979425 -2.0625 2.6875 C-1.381875 1.800625 -0.70125 0.91375 0 0 Z " fill="#292C7D" transform="translate(46,132)"/>
<path d="M0 0 C0.33 0.66 0.66 1.32 1 2 C1.66 2 2.32 2 3 2 C1.3186083 8.48707154 -0.53062327 14.7677635 -3 21 C-3.66 21 -4.32 21 -5 21 C-5.268125 21.86625 -5.53625 22.7325 -5.8125 23.625 C-8.83870968 32.22580645 -8.83870968 32.22580645 -13 35 C-13.0825 35.804375 -13.165 36.60875 -13.25 37.4375 C-13.4975 38.283125 -13.745 39.12875 -14 40 C-17.5625 41.8125 -17.5625 41.8125 -21 43 C-19.61879181 39.11448 -17.78822747 36.14390764 -15.375 32.8125 C-8.53810366 22.76263598 -4.17732339 11.36231963 0 0 Z " fill="#CDD924" transform="translate(133,91)"/>
<path d="M0 0 C-1.86147487 7.58908984 -1.86147487 7.58908984 -5 10 C-6.90112305 10.34057617 -6.90112305 10.34057617 -9.01171875 10.29296875 C-9.76904297 10.28330078 -10.52636719 10.27363281 -11.30664062 10.26367188 C-12.48516602 10.2259668 -12.48516602 10.2259668 -13.6875 10.1875 C-14.88342773 10.16719727 -14.88342773 10.16719727 -16.10351562 10.14648438 C-18.06929967 10.11117089 -20.03473582 10.05736447 -22 10 C-19.76923238 5.03518181 -18.28485602 2.88234171 -13.40625 0.6796875 C-8.98646572 -0.56875806 -4.54542654 -0.30080029 0 0 Z " fill="#FADB74" transform="translate(127,98)"/>
<path d="M0 0 C-0.4282326 2.89057007 -1.10562309 4.12872814 -3 6.4375 C-5.17910249 9.22947506 -6 10.47006828 -6 14 C-4.6378842 17.24971789 -3.26012954 20.36993523 0 22 C0 22.99 0 23.98 0 25 C-2.64 25 -5.28 25 -8 25 C-9.44681324 22.10637351 -9.43242376 19.1916991 -9.71875 15.99609375 C-9.79532012 14.00416869 -9.79532012 14.00416869 -11 13 C-11.16796875 11.0390625 -11.16796875 11.0390625 -11.1875 8.625 C-11.20167969 7.83351562 -11.21585937 7.04203125 -11.23046875 6.2265625 C-11 4 -11 4 -9 1 C-5.91520491 0.27802668 -3.16680795 0 0 0 Z " fill="#0569B6" transform="translate(139,121)"/>
<path d="M0 0 C11.55 0 23.1 0 35 0 C35 0.99 35 1.98 35 3 C30.38 3 25.76 3 21 3 C21 4.98 21 6.96 21 9 C18.69 9 16.38 9 14 9 C14 7.02 14 5.04 14 3 C9.38 3 4.76 3 0 3 C0 2.01 0 1.02 0 0 Z " fill="#FBF7F4" transform="translate(63,88)"/>
<path d="M0 0 C24.75 0 49.5 0 75 0 C75 3.63 75 7.26 75 11 C75.99 11 76.98 11 78 11 C78.15855469 11.66386719 78.31710938 12.32773437 78.48046875 13.01171875 C80.00261854 18.77234088 81.34294241 22.22400736 86 26 C81.73327616 25.52591957 79.7544952 23.11692878 77 20 C75.31763469 17.27617044 75 16.26115629 75 13 C74.34 13 73.68 13 73 13 C73 9.04 73 5.08 73 1 C48.91 1 24.82 1 0 1 C0 0.67 0 0.34 0 0 Z " fill="#DDDC1A" transform="translate(44,18)"/>
<path d="M0 0 C0.33 0.99 0.66 1.98 1 3 C6.94 3 12.88 3 19 3 C16.73106888 7.53786224 14.90133466 8.94678157 11 12 C11 11.34 11 10.68 11 10 C4.02024334 9.9838075 4.02024334 9.9838075 -1.625 13.5625 C-2.07875 14.366875 -2.5325 15.17125 -3 16 C-3.66 15.67 -4.32 15.34 -5 15 C-4.54625 14.38125 -4.0925 13.7625 -3.625 13.125 C-1.43160948 8.9069413 -0.76916651 4.66024414 0 0 Z " fill="#F7E8A4" transform="translate(100,111)"/>
<path d="M0 0 C10.83135392 1.26365796 10.83135392 1.26365796 16 4 C17.051875 4.45375 18.10375 4.9075 19.1875 5.375 C22 7 22 7 22.875 9.1875 C22.91625 9.785625 22.9575 10.38375 23 11 C23.66 11 24.32 11 25 11 C25 11.66 25 12.32 25 13 C25.99 12.67 26.98 12.34 28 12 C27.67 13.32 27.34 14.64 27 16 C23.08015394 15.42806517 20.4469169 14.25824376 17.125 12.125 C13.16958088 9.66174498 9.33426385 7.69601629 5 6 C5 5.34 5 4.68 5 4 C3.35 3.67 1.7 3.34 0 3 C0 2.01 0 1.02 0 0 Z " fill="#2061A4" transform="translate(83,46)"/>
<path d="M0 0 C0.33 0 0.66 0 1 0 C1.495 7.92 1.495 7.92 2 16 C-1.63 16.33 -5.26 16.66 -9 17 C-9 16.34 -9 15.68 -9 15 C-9.99 15.33 -10.98 15.66 -12 16 C-13.31818554 14.56771184 -14.62936704 13.12897516 -15.9375 11.6875 C-16.66839844 10.88699219 -17.39929687 10.08648437 -18.15234375 9.26171875 C-20 7 -20 7 -21 4 C-19.02 4.99 -19.02 4.99 -17 6 C-17 6.99 -17 7.98 -17 9 C-11.39 9 -5.78 9 0 9 C0 6.03 0 3.06 0 0 Z " fill="#FBEAA2" transform="translate(60,105)"/>
<path d="M0 0 C1.16208984 0.08507813 1.16208984 0.08507813 2.34765625 0.171875 C4.23265095 0.31150424 6.11648861 0.46661381 8 0.625 C8 0.955 8 1.285 8 1.625 C6.87722656 1.66238281 5.75445312 1.69976562 4.59765625 1.73828125 C-10.10312326 2.33596736 -21.04672997 5.1479591 -32 15.625 C-36.80919743 21.92988084 -39.89522579 27.70745151 -41 35.625 C-42.98 36.12 -42.98 36.12 -45 36.625 C-43.24452379 25.03885699 -35.79106271 15.02882055 -27 7.625 C-18.29250496 1.37168748 -10.58732866 -0.91744616 0 0 Z " fill="#C14424" transform="translate(79,41.375)"/>
<path d="M0 0 C2 1 2 1 2.875 3.25 C4.13818288 6.33778039 5.83904073 8.47888085 8 11 C6.75 13 6.75 13 5 15 C3.68 15 2.36 15 1 15 C1.33 15.66 1.66 16.32 2 17 C2.99 17.33 3.98 17.66 5 18 C5.33 17.01 5.66 16.02 6 15 C9.5625 13.8125 9.5625 13.8125 13 13 C13.33 10.69 13.66 8.38 14 6 C13.01 6.99 12.02 7.98 11 9 C9 8 9 8 8.125 5.5625 C7.22949848 2.86394485 7.22949848 2.86394485 4.875 1.6875 C4.25625 1.460625 3.6375 1.23375 3 1 C5.3125 0.6875 5.3125 0.6875 8 1 C9.8125 3.5 9.8125 3.5 11 6 C11.66 5.01 12.32 4.02 13 3 C13.99 3 14.98 3 16 3 C16 2.34 16 1.68 16 1 C17.98 0.67 19.96 0.34 22 0 C20.47793991 2.62901288 19.15634036 4.84365964 17 7 C16.855625 8.155 16.71125 9.31 16.5625 10.5 C16.376875 11.655 16.19125 12.81 16 14 C12.5647952 16.29013653 11.014669 16.17842973 7 16 C6.67 17.32 6.34 18.64 6 20 C3.625 19.8125 3.625 19.8125 1 19 C-0.3125 16.4375 -0.3125 16.4375 -1 14 C1.31 13.34 3.62 12.68 6 12 C5.195625 11.13375 4.39125 10.2675 3.5625 9.375 C1.03075864 6.37123907 0.28342624 3.96796738 0 0 Z " fill="#5887B4" transform="translate(25,48)"/>
<path d="M0 0 C0.99 0 1.98 0 3 0 C3.66 6.93 4.32 13.86 5 21 C4.34 21 3.68 21 3 21 C2.67 20.34 2.34 19.68 2 19 C1.34 19.33 0.68 19.66 0 20 C-3.3748349 17.75011007 -3.93600927 16.81263347 -5 13 C-4.625 10.1875 -4.625 10.1875 -4 8 C-3.34 8 -2.68 8 -2 8 C-1.855625 6.865625 -1.71125 5.73125 -1.5625 4.5625 C-1 1 -1 1 0 0 Z " fill="#28297D" transform="translate(120,125)"/>
<path d="M0 0 C4.71403788 0.47939368 8.66579301 0.96834048 13 3 C12.01 3.495 12.01 3.495 11 4 C10.87625 5.010625 10.7525 6.02125 10.625 7.0625 C9.9874964 11.07877271 8.81149924 13.5541699 6.921875 17.06640625 C5.6902428 19.64970259 5.28319914 22.16800858 5 25 C3.35 25 1.7 25 0 25 C0 22 0 22 1.3125 20.625 C1.869375 20.08875 2.42625 19.5525 3 19 C4.91666667 16.75 4.91666667 16.75 6 14 C5.33105113 10.35794505 4.49874697 8.49874697 1.875 5.875 C1.25625 5.25625 0.6375 4.6375 0 4 C0 2.68 0 1.36 0 0 Z " fill="#0F73BB" transform="translate(23,121)"/>
<path d="M0 0 C0.66 0 1.32 0 2 0 C5.7945903 9.09685264 7.01031794 17.22576131 6 27 C4.9765625 29.4375 4.9765625 29.4375 4 31 C2.68 31 1.36 31 0 31 C0.16242188 30.20207031 0.32484375 29.40414062 0.4921875 28.58203125 C1.10589817 24.2530106 1.14600244 20.05250677 1.125 15.6875 C1.12886719 14.86443359 1.13273437 14.04136719 1.13671875 13.19335938 C1.51786158 9.28391242 1.51786158 9.28391242 0 6 C-0.04080783 4.00041636 -0.04254356 1.99954746 0 0 Z " fill="#A84D38" transform="translate(123,67)"/>
<path d="M0 0 C0.33 0.66 0.66 1.32 1 2 C0.34 2 -0.32 2 -1 2 C-1 5.3 -1 8.6 -1 12 C-1.33 11.01 -1.66 10.02 -2 9 C-2.81404297 9.32484375 -2.81404297 9.32484375 -3.64453125 9.65625 C-4.35996094 9.9346875 -5.07539062 10.213125 -5.8125 10.5 C-6.52019531 10.7784375 -7.22789063 11.056875 -7.95703125 11.34375 C-10 12 -10 12 -13 12 C-13 11.34 -13 10.68 -13 10 C-13.66 10 -14.32 10 -15 10 C-15 10.99 -15 11.98 -15 13 C-17.875 13.1875 -17.875 13.1875 -21 13 C-21.66 12.01 -22.32 11.02 -23 10 C-21.80375 9.649375 -20.6075 9.29875 -19.375 8.9375 C-12.5833424 6.69896966 -6.32970905 3.28640655 0 0 Z " fill="#063F8C" transform="translate(117,131)"/>
<path d="M0 0 C0.99 0.99 1.98 1.98 3 3 C2.72285156 3.86882812 2.44570313 4.73765625 2.16015625 5.6328125 C1.79792969 6.78523437 1.43570313 7.93765625 1.0625 9.125 C0.70285156 10.26195312 0.34320313 11.39890625 -0.02734375 12.5703125 C-0.91898339 15.71432699 -1.53351014 18.76894393 -2 22 C-3.98 22 -5.96 22 -8 22 C-8.49443895 17.05561048 -7.31345643 14.23854699 -5.015625 10.03125 C-4.02236602 8.04473203 -3.42054952 6.20950133 -2.875 4.0625 C-2.441875 2.5465625 -2.441875 2.5465625 -2 1 C-1.34 0.67 -0.68 0.34 0 0 Z " fill="#094692" transform="translate(36,124)"/>
<path d="M0 0 C3.91211733 1.15585285 6.8745041 2.35534962 10 5 C10.66 4.01 11.32 3.02 12 2 C12.66 2.33 13.32 2.66 14 3 C13.34 4.65 12.68 6.3 12 8 C10.68 7.67 9.36 7.34 8 7 C8 6.34 8 5.68 8 5 C7.34 5 6.68 5 6 5 C6.68691621 8.17944076 7.47156347 11.11705247 9 14 C11.42389054 15.43817505 13.14598486 15.6230546 16 16 C16 16.66 16 17.32 16 18 C16.99 17.67 17.98 17.34 19 17 C19.33 16.34 19.66 15.68 20 15 C19.38125 14.87625 18.7625 14.7525 18.125 14.625 C16 14 16 14 14 12 C14 11.01 14 10.02 14 9 C14.66 9 15.32 9 16 9 C16.33 9.99 16.66 10.98 17 12 C19.50447516 13.21869929 19.50447516 13.21869929 22 14 C21.6875 15.875 21.6875 15.875 21 18 C18 20 18 20 15 20 C14.67 19.01 14.34 18.02 14 17 C11.66989091 16.32215008 9.33640176 15.65583207 7 15 C5 12 5 12 4.0625 9.0625 C3.04879204 6.14063589 1.88391905 4.39771515 0 2 C0 1.34 0 0.68 0 0 Z " fill="#5D8CB7" transform="translate(116,48)"/>
<path d="M0 0 C-0.99 0.495 -0.99 0.495 -2 1 C-1.85950482 2.47968324 -1.71245174 3.95874516 -1.5625 5.4375 C-1.48128906 6.26121094 -1.40007812 7.08492187 -1.31640625 7.93359375 C-1.21069185 9.98662025 -1.21069185 9.98662025 0 11 C0.23363881 12.84891946 0.41303635 14.70488031 0.5625 16.5625 C0.64628906 17.57441406 0.73007813 18.58632812 0.81640625 19.62890625 C0.90728516 20.80259766 0.90728516 20.80259766 1 22 C-0.65 21.67 -2.3 21.34 -4 21 C-4.13277344 20.15695313 -4.26554687 19.31390625 -4.40234375 18.4453125 C-4.57894531 17.34960938 -4.75554687 16.25390625 -4.9375 15.125 C-5.11152344 14.03445312 -5.28554687 12.94390625 -5.46484375 11.8203125 C-5.85551159 9.06178454 -5.85551159 9.06178454 -7 7 C-7.039992 5.00039988 -7.04346799 2.99952758 -7 1 C-4.53721199 -0.231394 -2.7204945 -0.07159196 0 0 Z " fill="#0B418E" transform="translate(130,124)"/>
<path d="M0 0 C0 0.66 0 1.32 0 2 C0.99 2.33 1.98 2.66 3 3 C2.43152344 3.35191406 1.86304687 3.70382813 1.27734375 4.06640625 C-4.15767128 7.54154942 -8.60458093 11.29712934 -13 16 C-13.99654977 17.00343836 -14.99549894 18.00452141 -16 19 C-15.42231401 15.32617676 -14.42308392 12.58823394 -12.5625 9.375 C-12.13066406 8.61960937 -11.69882812 7.86421875 -11.25390625 7.0859375 C-5.82683307 -1.94227769 -5.82683307 -1.94227769 0 0 Z " fill="#40126A" transform="translate(54,55)"/>
<path d="M0 0 C0.66 0 1.32 0 2 0 C2 0.66 2 1.32 2 2 C2.66 1.67 3.32 1.34 4 1 C7.38175238 0.59395769 10.62707423 0.48929077 14 1 C16 3.3125 16 3.3125 17 6 C17.99 7.485 17.99 7.485 19 9 C18.34 9 17.68 9 17 9 C17 9.66 17 10.32 17 11 C10.4389196 9.26860378 4.9131363 6.80603796 0 2 C0 1.34 0 0.68 0 0 Z " fill="#F3EFC3" transform="translate(49,120)"/>
<path d="M0 0 C-0.75 6.75 -0.75 6.75 -3 9 C-4.32 9 -5.64 9 -7 9 C-4.96197865 13.06024321 -4.96197865 13.06024321 -1 15 C-1.33 15.99 -1.66 16.98 -2 18 C-2.99 18 -3.98 18 -5 18 C-5.33 17.34 -5.66 16.68 -6 16 C-7.134375 15.773125 -8.26875 15.54625 -9.4375 15.3125 C-11.2009375 14.6628125 -11.2009375 14.6628125 -13 14 C-14.2886478 10.86242274 -15 8.39140533 -15 5 C-14.34 5 -13.68 5 -13 5 C-12.67 5.66 -12.34 6.32 -12 7 C-9.36 7 -6.72 7 -4 7 C-3.34 5.35 -2.68 3.7 -2 2 C-3.32 1.67 -4.64 1.34 -6 1 C-4 0 -4 0 0 0 Z " fill="#2862A2" transform="translate(137,48)"/>
<path d="M0 0 C0 0.66 0 1.32 0 2 C-0.99 2.66 -1.98 3.32 -3 4 C-3.33 4.33 -3.66 4.66 -4 5 C-3.01 5.66 -2.02 6.32 -1 7 C-1.88042969 7.09796875 -2.76085937 7.1959375 -3.66796875 7.296875 C-4.82941406 7.44640625 -5.99085937 7.5959375 -7.1875 7.75 C-8.91033203 7.95882812 -8.91033203 7.95882812 -10.66796875 8.171875 C-15.60346198 9.39851576 -18.57111992 12.39065254 -22 16 C-21.67965614 10.71432632 -18.78356972 7.42726943 -15 4 C-10.20132731 1.42928249 -5.46948042 0 0 0 Z " fill="#065FAE" transform="translate(102,68)"/>
<path d="M0 0 C0.33 0.99 0.66 1.98 1 3 C1.66 3 2.32 3 3 3 C1.4719611 8.09882455 -0.71036856 12.65665659 -3.125 17.375 C-3.49753906 18.11105469 -3.87007812 18.84710938 -4.25390625 19.60546875 C-5.1656122 21.40550358 -6.08229932 23.20301402 -7 25 C-10 25 -10 25 -13 23 C-12.113125 22.030625 -11.22625 21.06125 -10.3125 20.0625 C-5.18963098 14.06765327 -1.79524378 7.67058706 0 0 Z " fill="#1159A0" transform="translate(127,97)"/>
<path d="M0 0 C8.57142857 -0.14285714 8.57142857 -0.14285714 12 1 C12.33 2.65 12.66 4.3 13 6 C13.763125 5.814375 14.52625 5.62875 15.3125 5.4375 C18 5 18 5 21 6 C21.33 5.01 21.66 4.02 22 3 C22 3.99 22 4.98 22 6 C23.32 6.33 24.64 6.66 26 7 C24.21142578 6.98259766 24.21142578 6.98259766 22.38671875 6.96484375 C20.82031406 6.95546408 19.25390769 6.94636407 17.6875 6.9375 C16.90181641 6.92912109 16.11613281 6.92074219 15.30664062 6.91210938 C14.1706543 6.90727539 14.1706543 6.90727539 13.01171875 6.90234375 C12.31522217 6.89710693 11.61872559 6.89187012 10.90112305 6.88647461 C8.77502032 6.93104009 8.77502032 6.93104009 6 8 C5.01 7.67 4.02 7.34 3 7 C3 6.01 3 5.02 3 4 C2.34 4 1.68 4 1 4 C0.67 2.68 0.34 1.36 0 0 Z " fill="#1282D0" transform="translate(69,145)"/>
<path d="M0 0 C0 0.66 0 1.32 0 2 C0.66 2 1.32 2 2 2 C2.33 4.31 2.66 6.62 3 9 C2.01 8.67 1.02 8.34 0 8 C-0.33 9.32 -0.66 10.64 -1 12 C-2.9375 12.5625 -2.9375 12.5625 -5 13 C-6 12 -6 12 -6.0625 8.4375 C-6.041875 7.303125 -6.02125 6.16875 -6 5 C-6.99 4.67 -7.98 4.34 -9 4 C-8.67 3.01 -8.34 2.02 -8 1 C-5.07175348 0.02391783 -3.04386724 -0.08226668 0 0 Z M-6 3 C-5 5 -5 5 -5 5 Z " fill="#ECB965" transform="translate(29,22)"/>
<path d="M0 0 C0.99 0.66 1.98 1.32 3 2 C3.2776358 4.99727246 3.37168856 7.75742665 3.3125 10.75 C3.31572266 11.54921875 3.31894531 12.3484375 3.32226562 13.171875 C3.28013453 17.82927585 2.77199278 21.62296604 1 26 C0.01 26 -0.98 26 -2 26 C-2.29003906 24.75283203 -2.29003906 24.75283203 -2.5859375 23.48046875 C-2.84632812 22.39378906 -3.10671875 21.30710937 -3.375 20.1875 C-3.63023438 19.10855469 -3.88546875 18.02960938 -4.1484375 16.91796875 C-4.88732881 13.84466657 -4.88732881 13.84466657 -7 11 C-6.67 10.01 -6.34 9.02 -6 8 C-3.90503568 11.63127149 -1.84852232 15.23634193 0 19 C0.02691685 16.54159395 0.04679802 14.08348118 0.0625 11.625 C0.07087891 10.92632812 0.07925781 10.22765625 0.08789062 9.5078125 C0.1835442 5.62704624 0.1835442 5.62704624 -1 2 C-0.67 1.34 -0.34 0.68 0 0 Z " fill="#1E87D3" transform="translate(122,72)"/>
<path d="M0 0 C1.875 0.25 1.875 0.25 4 1 C5.25 3.0625 5.25 3.0625 6 5 C6.66 5 7.32 5 8 5 C8.33 4.01 8.66 3.02 9 2 C10 4 10 4 9.5 7.5 C9.005 8.655 8.51 9.81 8 11 C4.4375 12.3125 4.4375 12.3125 1 13 C0.67 13.66 0.34 14.32 0 15 C-1.32 14.67 -2.64 14.34 -4 14 C-4 13.34 -4 12.68 -4 12 C-3.195625 11.731875 -2.39125 11.46375 -1.5625 11.1875 C-0.716875 10.795625 0.12875 10.40375 1 10 C1.33 9.01 1.66 8.02 2 7 C1.484375 6.5875 0.96875 6.175 0.4375 5.75 C-0.036875 5.1725 -0.51125 4.595 -1 4 C-0.6875 1.8125 -0.6875 1.8125 0 0 Z " fill="#074B99" transform="translate(30,51)"/>
<path d="M0 0 C0 0.66 0 1.32 0 2 C0.66 2.66 1.32 3.32 2 4 C1.34 4 0.68 4 0 4 C0 4.66 0 5.32 0 6 C-2.64458379 7.32229189 -4.67761301 7.09677194 -7.625 7.0625 C-8.62789063 7.05347656 -9.63078125 7.04445313 -10.6640625 7.03515625 C-11.43492188 7.02355469 -12.20578125 7.01195313 -13 7 C-13 5.02 -13 3.04 -13 1 C-8.62426048 0.40667939 -4.42471556 -0.13827236 0 0 Z " fill="#E0480C" transform="translate(98,91)"/>
<path d="M0 0 C1.98 0 3.96 0 6 0 C6.33 4.95 6.66 9.9 7 15 C6.67 15 6.34 15 6 15 C6 13.35 6 11.7 6 10 C4.35 10.66 2.7 11.32 1 12 C1 13.65 1 15.3 1 17 C0.67 17 0.34 17 0 17 C0 11.39 0 5.78 0 0 Z " fill="#381171" transform="translate(64,106)"/>
<path d="M0 0 C0.90492187 0.02320312 1.80984375 0.04640625 2.7421875 0.0703125 C4.10730469 0.09738281 4.10730469 0.09738281 5.5 0.125 C6.19867188 0.14820312 6.89734375 0.17140625 7.6171875 0.1953125 C7.6171875 1.1853125 7.6171875 2.1753125 7.6171875 3.1953125 C-1.60832503 8.93563141 -1.60832503 8.93563141 -7.3828125 8.1953125 C-7.7128125 7.5353125 -8.0428125 6.8753125 -8.3828125 6.1953125 C-2.3828125 0.1953125 -2.3828125 0.1953125 0 0 Z " fill="#F8F0C1" transform="translate(103.3828125,120.8046875)"/>
<path d="M0 0 C1 2 1 2 0.0625 5.125 C-0.4634375 6.548125 -0.4634375 6.548125 -1 8 C-1.66 8 -2.32 8 -3 8 C-3.268125 8.86625 -3.53625 9.7325 -3.8125 10.625 C-6.83870968 19.22580645 -6.83870968 19.22580645 -11 22 C-11.0825 22.804375 -11.165 23.60875 -11.25 24.4375 C-11.4975 25.283125 -11.745 26.12875 -12 27 C-15.5625 28.8125 -15.5625 28.8125 -19 30 C-17.52410328 25.57230983 -15.26930159 21.3663135 -12 18 C-11.01 18 -10.02 18 -9 18 C-8.731875 17.29875 -8.46375 16.5975 -8.1875 15.875 C-6.9318551 12.8350176 -5.49764877 9.9272226 -4 7 C-3.34 7 -2.68 7 -2 7 C-1.855625 6.030625 -1.71125 5.06125 -1.5625 4.0625 C-1 1 -1 1 0 0 Z " fill="#C6C362" transform="translate(131,104)"/>
<path d="M0 0 C0 0.66 0 1.32 0 2 C-1.28468039 2.6392371 -2.57838107 3.26033982 -3.875 3.875 C-4.59429687 4.22304687 -5.31359375 4.57109375 -6.0546875 4.9296875 C-13.96562364 7.80448392 -21.83438338 8.31917695 -30.1875 8.25 C-31.13302734 8.25773438 -32.07855469 8.26546875 -33.05273438 8.2734375 C-38.4274532 8.25845571 -42.9187984 7.77104122 -48 6 C-48 5.67 -48 5.34 -48 5 C-47.37996094 5.0721875 -46.75992188 5.144375 -46.12109375 5.21875 C-29.36149535 6.97521446 -15.08409098 0 0 0 Z " fill="#5A90BD" transform="translate(112,133)"/>
<path d="M0 0 C0.66 0 1.32 0 2 0 C2.50943785 3.81129968 3.0058065 7.62419614 3.5 11.4375 C3.64308594 12.50677734 3.78617188 13.57605469 3.93359375 14.67773438 C4.7257749 20.84543049 5.15691598 26.7822041 5 33 C2.24072656 30.24072656 2.48216757 27.78845948 2 24 C1.67 23.67 1.34 23.34 1 23 C-0.03361631 15.3691043 -0.13619034 7.6871881 0 0 Z " fill="#E6E611" transform="translate(18,44)"/>
<path d="M0 0 C0.33 0.99 0.66 1.98 1 3 C0.01 3.66 -0.98 4.32 -2 5 C-0.68 5.33 0.64 5.66 2 6 C0.44033782 6.508783 -1.12289241 7.00663469 -2.6875 7.5 C-3.99267578 7.91765625 -3.99267578 7.91765625 -5.32421875 8.34375 C-7.99391677 8.99850805 -10.26396684 9.11831495 -13 9 C-12.8125 6.625 -12.8125 6.625 -12 4 C-9.54236535 2.67665827 -7.79402354 2 -5 2 C-2 0 -2 0 0 0 Z " fill="#735186" transform="translate(67,48)"/>
<path d="M0 0 C2.31 0 4.62 0 7 0 C7.43695709 5.33087655 7.43695709 5.33087655 7 8 C4.59140121 10.02829372 3.16955691 11 0 11 C0 7.37 0 3.74 0 0 Z " fill="#2C066C" transform="translate(77,98)"/>
<path d="M0 0 C1 2 1 2 0.44140625 3.9453125 C0.15136719 4.66460937 -0.13867188 5.38390625 -0.4375 6.125 C-0.72496094 6.84945312 -1.01242188 7.57390625 -1.30859375 8.3203125 C-1.53675781 8.87460937 -1.76492187 9.42890625 -2 10 C-1.34 10 -0.68 10 0 10 C0 10.66 0 11.32 0 12 C-4.29 12 -8.58 12 -13 12 C-13 11.34 -13 10.68 -13 10 C-12.01 9.34 -11.02 8.68 -10 8 C-10 7.34 -10 6.68 -10 6 C-7.03 6.495 -7.03 6.495 -4 7 C-3.71125 6.21625 -3.4225 5.4325 -3.125 4.625 C-2 2 -2 2 0 0 Z " fill="#1556A0" transform="translate(87,28)"/>
<path d="M0 0 C1.33333333 0.66666667 2.66666667 1.33333333 4 2 C5.051875 2.45375 6.10375 2.9075 7.1875 3.375 C10 5 10 5 10.875 7.1875 C10.936875 8.0846875 10.936875 8.0846875 11 9 C11.66 9 12.32 9 13 9 C13 9.66 13 10.32 13 11 C13.99 10.67 14.98 10.34 16 10 C15.67 11.32 15.34 12.64 15 14 C14.34 14 13.68 14 13 14 C13 13.34 13 12.68 13 12 C12.319375 11.79375 11.63875 11.5875 10.9375 11.375 C7.58633682 9.80637043 5.27350754 7.80901238 2.55078125 5.33984375 C1.02350546 3.90910919 1.02350546 3.90910919 -1 3 C-0.67 2.01 -0.34 1.02 0 0 Z " fill="#6298C3" transform="translate(95,48)"/>
<path d="M0 0 C-0.42620315 2.87687128 -1.05683119 4.06571107 -3 6.3125 C-5.420096 9.56450399 -5.68707499 12.01020606 -6 16 C-6.66 15.67 -7.32 15.34 -8 15 C-7.95875 13.96875 -7.9175 12.9375 -7.875 11.875 C-7.99575149 8.13170373 -8.64872018 5.46265453 -10 2 C-3.375 0 -3.375 0 0 0 Z " fill="#2E92CF" transform="translate(139,121)"/>
<path d="M0 0 C0 5.28 0 10.56 0 16 C-1.32 15.67 -2.64 15.34 -4 15 C-4 11.04 -4 7.08 -4 3 C-4.66 2.67 -5.32 2.34 -6 2 C-1.125 0 -1.125 0 0 0 Z " fill="#FAE595" transform="translate(89,106)"/>
<path d="M0 0 C7.27964381 2.37379689 14.47465042 7.53676886 18.29296875 14.28515625 C18.52628906 14.85105469 18.75960937 15.41695312 19 16 C18.55011719 15.62488281 18.10023437 15.24976562 17.63671875 14.86328125 C12.16047564 10.50643052 6.44543127 7.67769755 0 5 C0 3.35 0 1.7 0 0 Z " fill="#D74816" transform="translate(95,55)"/>
<path d="M0 0 C0.33 0 0.66 0 1 0 C1 3.3 1 6.6 1 10 C1.99 10 2.98 10 4 10 C4.23783203 10.99580078 4.23783203 10.99580078 4.48046875 12.01171875 C6.00261854 17.77234088 7.34294241 21.22400736 12 25 C7.70701074 24.52300119 5.71471348 22.20196975 3 19 C-0.65299197 12.82770322 -0.31220032 7.0418517 0 0 Z " fill="#DAD834" transform="translate(118,19)"/>
<path d="M0 0 C0.33 0.66 0.66 1.32 1 2 C2.98 1.67 4.96 1.34 7 1 C7.33 1.99 7.66 2.98 8 4 C7.67 4.66 7.34 5.32 7 6 C7.66 6 8.32 6 9 6 C9 6.66 9 7.32 9 8 C8.34 8 7.68 8 7 8 C7 8.66 7 9.32 7 10 C5.5903653 10.70180531 4.17192359 11.38593958 2.75 12.0625 C1.96109375 12.44535156 1.1721875 12.82820312 0.359375 13.22265625 C-2.25993522 14.08564091 -3.44855176 13.93045933 -6 13 C-5.28972656 12.68546875 -4.57945313 12.3709375 -3.84765625 12.046875 C-2.92855469 11.61890625 -2.00945312 11.1909375 -1.0625 10.75 C-0.14597656 10.33234375 0.77054687 9.9146875 1.71484375 9.484375 C4.16449617 8.21446051 4.16449617 8.21446051 4.81640625 5.828125 C4.87699219 5.22484375 4.93757813 4.6215625 5 4 C3.68 4.33 2.36 4.66 1 5 C0.67 3.35 0.34 1.7 0 0 Z " fill="#154388" transform="translate(110,143)"/>
<path d="M0 0 C4.27343092 -0.36629408 6.48812804 0.59185923 10 3 C9.67 4.32 9.34 5.64 9 7 C7.68 7 6.36 7 5 7 C4.67 7.66 4.34 8.32 4 9 C4 8.01 4 7.02 4 6 C2.35 5.67 0.7 5.34 -1 5 C-0.67 3.35 -0.34 1.7 0 0 Z " fill="#6277AA" transform="translate(46,138)"/>
<path d="M0 0 C0.99 0.33 1.98 0.66 3 1 C3 3.97 3 6.94 3 10 C0.69 10.33 -1.62 10.66 -4 11 C-4.75 9.25 -4.75 9.25 -5 7 C-3.125 4.9375 -3.125 4.9375 -1 3 C-0.67 2.01 -0.34 1.02 0 0 Z " fill="#033D90" transform="translate(137,50)"/>
<path d="M0 0 C0.66 0 1.32 0 2 0 C2 0.66 2 1.32 2 2 C2.804375 2.268125 3.60875 2.53625 4.4375 2.8125 C5.7059375 3.4003125 5.7059375 3.4003125 7 4 C7.33 4.99 7.66 5.98 8 7 C7.030625 7.28875 6.06125 7.5775 5.0625 7.875 C1.89335797 8.64214682 1.89335797 8.64214682 1 11 C0.34 11 -0.32 11 -1 11 C-1.0270043 9.54176788 -1.04639787 8.08339325 -1.0625 6.625 C-1.07410156 5.81289063 -1.08570312 5.00078125 -1.09765625 4.1640625 C-1 2 -1 2 0 0 Z " fill="#043F92" transform="translate(23,53)"/>
<path d="M0 0 C0 0.66 0 1.32 0 2 C0.66 2 1.32 2 2 2 C2.33 1.34 2.66 0.68 3 0 C6.93846154 3.32307692 6.93846154 3.32307692 7.25 6.75 C7.1675 7.4925 7.085 8.235 7 9 C5.6078125 8.505 5.6078125 8.505 4.1875 8 C1.07970709 6.85032996 1.07970709 6.85032996 -2 7 C-2 6.01 -2 5.02 -2 4 C-2.99 4 -3.98 4 -5 4 C-4.67 3.01 -4.34 2.02 -4 1 C-2 0 -2 0 0 0 Z M3 4 C4 7 4 7 4 7 Z " fill="#EFD989" transform="translate(135,22)"/>
<path d="M0 0 C0.99 0 1.98 0 3 0 C3.66 6.93 4.32 13.86 5 21 C4.34 21 3.68 21 3 21 C2.66104344 19.27192682 2.32908475 17.54248026 2 15.8125 C1.814375 14.84957031 1.62875 13.88664063 1.4375 12.89453125 C1.03122388 10.2065794 0.92066428 7.71228981 1 5 C0.34 5 -0.32 5 -1 5 C-0.67 3.35 -0.34 1.7 0 0 Z " fill="#45327E" transform="translate(120,125)"/>
<path d="M0 0 C2.03120707 3.04681061 2.24659875 3.60118324 2.1953125 7.01171875 C2.18886719 7.76904297 2.18242187 8.52636719 2.17578125 9.30664062 C2.15902344 10.09232422 2.14226562 10.87800781 2.125 11.6875 C2.11597656 12.48478516 2.10695312 13.28207031 2.09765625 14.10351562 C2.07411585 16.069139 2.03824547 18.03460775 2 20 C0.35 20.33 -1.3 20.66 -3 21 C-2.5359375 19.4221875 -2.5359375 19.4221875 -2.0625 17.8125 C-0.57796206 11.96910597 -0.34748289 5.99865199 0 0 Z " fill="#E2480F" transform="translate(126,77)"/>
<path d="M0 0 C0.99 0.495 0.99 0.495 2 1 C2.40729228 3.32156597 2.74438677 5.6568787 3 8 C3.66 7.01 4.32 6.02 5 5 C5.761788 12.32613141 6.40711812 19.65835626 7 27 C6.34 26.67 5.68 26.34 5 26 C4.31396484 23.82275391 4.31396484 23.82275391 3.7109375 20.9765625 C3.49179687 19.955625 3.27265625 18.9346875 3.046875 17.8828125 C2.82515625 16.80773437 2.6034375 15.73265625 2.375 14.625 C2.14554688 13.55765625 1.91609375 12.4903125 1.6796875 11.390625 C0 3.45210193 0 3.45210193 0 0 Z " fill="#B2AC61" transform="translate(19,67)"/>
<path d="M0 0 C2.09311231 2.09311231 2.56037094 3.17781105 3.47265625 5.921875 C3.73240234 6.70046875 3.99214844 7.4790625 4.25976562 8.28125 C4.52466797 9.0959375 4.78957031 9.910625 5.0625 10.75 C5.33126953 11.54921875 5.60003906 12.3484375 5.87695312 13.171875 C7.28189752 17.43225501 8.4164976 21.53368535 9 26 C6.03947516 22.63576723 5.07710178 19.30840713 4 15 C3.34 15 2.68 15 2 15 C1.66223316 13.2508503 1.32996329 11.50063855 1 9.75 C0.814375 8.77546875 0.62875 7.8009375 0.4375 6.796875 C0 4 0 4 0 0 Z " fill="#CED627" transform="translate(24,82)"/>
<path d="M0 0 C1.18239258 0.07831055 1.18239258 0.07831055 2.38867188 0.15820312 C4.32201529 0.28709269 6.25482164 0.42399494 8.1875 0.5625 C8.1875 0.8925 8.1875 1.2225 8.1875 1.5625 C7.06472656 1.59988281 5.94195312 1.63726562 4.78515625 1.67578125 C-3.16359872 2.00150625 -10.43165106 2.31160923 -17.8125 5.5625 C-18.823125 5.954375 -19.83375 6.34625 -20.875 6.75 C-21.514375 7.018125 -22.15375 7.28625 -22.8125 7.5625 C-22.8125 6.5725 -22.8125 5.5825 -22.8125 4.5625 C-21.41971983 3.91010842 -20.02310788 3.26589448 -18.625 2.625 C-17.84769531 2.26535156 -17.07039063 1.90570313 -16.26953125 1.53515625 C-10.71845871 -0.66232716 -5.84786571 -0.42645794 0 0 Z " fill="#9E4237" transform="translate(78.8125,41.4375)"/>
<path d="M0 0 C0 1.65 0 3.3 0 5 C-3.96 5 -7.92 5 -12 5 C-12 3.68 -12 2.36 -12 1 C-7.93631321 0.22596442 -4.13574827 -0.0984702 0 0 Z " fill="#7686B1" transform="translate(82,45)"/>
<path d="M0 0 C1.79323253 0.28187936 3.58457126 0.5758281 5.375 0.875 C6.37273437 1.03742188 7.37046875 1.19984375 8.3984375 1.3671875 C11 2 11 2 13 4 C10.90608833 6.09391167 6.89649151 5.73514572 4 6 C3.01 6 2.02 6 1 6 C1 5.34 1 4.68 1 4 C0.01 3.67 -0.98 3.34 -2 3 C-1.34 2.01 -0.68 1.02 0 0 Z " fill="#0969B7" transform="translate(63,139)"/>
<path d="M0 0 C0.33 0.66 0.66 1.32 1 2 C4.96 2 8.92 2 13 2 C5 8 5 8 0 8 C0 5.36 0 2.72 0 0 Z " fill="#F6D071" transform="translate(99,96)"/>
<path d="M0 0 C3.3 0 6.6 0 10 0 C10.66 1.32 11.32 2.64 12 4 C10.20909747 4.19466332 8.41723495 4.38051213 6.625 4.5625 C5.12839844 4.71912109 5.12839844 4.71912109 3.6015625 4.87890625 C1 5 1 5 -1 4 C-0.67 2.68 -0.34 1.36 0 0 Z " fill="#077CCD" transform="translate(78,142)"/>
<path d="M0 0 C2.75 -0.25 2.75 -0.25 6 0 C8.375 2 8.375 2 10 4 C9.525625 4.391875 9.05125 4.78375 8.5625 5.1875 C6.64820367 7.40808374 6.38733012 9.13375709 6 12 C4.68 11.01 3.36 10.02 2 9 C2.33 8.01 2.66 7.02 3 6 C3 6.66 3 7.32 3 8 C3.66 8 4.32 8 5 8 C5 7.01 5 6.02 5 5 C4.34 5 3.68 5 3 5 C3 4.34 3 3.68 3 3 C2.34 3 1.68 3 1 3 C0.67 2.01 0.34 1.02 0 0 Z " fill="#1B74BA" transform="translate(105,54)"/>
<path d="M0 0 C7.42857143 1 7.42857143 1 11 2 C10.67 3.32 10.34 4.64 10 6 C8.741875 5.87625 7.48375 5.7525 6.1875 5.625 C5.12595703 5.52058594 5.12595703 5.52058594 4.04296875 5.4140625 C2 5 2 5 -1 3 C-0.67 2.01 -0.34 1.02 0 0 Z " fill="#074390" transform="translate(52,136)"/>
<path d="M0 0 C4.1970092 -0.35281338 6.06522073 0.35814568 9.3125 3 C10.00988281 3.556875 10.70726563 4.11375 11.42578125 4.6875 C11.94527344 5.120625 12.46476562 5.55375 13 6 C12.67 6.66 12.34 7.32 12 8 C7.39571066 6.68448876 3.81679612 4.90803514 0 2 C0 1.34 0 0.68 0 0 Z " fill="#115DA6" transform="translate(97,47)"/>
<path d="M0 0 C0.66 0.33 1.32 0.66 2 1 C1.69106068 2.6256807 1.3777305 4.25052748 1.0625 5.875 C0.88847656 6.77992188 0.71445312 7.68484375 0.53515625 8.6171875 C0 11 0 11 -1 13 C-1.66 13 -2.32 13 -3 13 C-3.12375 13.94875 -3.2475 14.8975 -3.375 15.875 C-4 19 -4 19 -6 21 C-6.49424312 16.05756875 -5.31060158 13.24451141 -3.0234375 9.03515625 C-1.55039133 6.10593084 -0.79360266 3.17441063 0 0 Z " fill="#0265B3" transform="translate(34,125)"/>
<path d="M0 0 C0.33 0.99 0.66 1.98 1 3 C1.66 3 2.32 3 3 3 C1.7874262 6.72433382 0.49140021 10.37802806 -1 14 C-1.66 14 -2.32 14 -3 14 C-3.33 14.66 -3.66 15.32 -4 16 C-4.66 16 -5.32 16 -6 16 C-4.95346811 12.69939943 -3.81540689 9.4870894 -2.4375 6.3125 C-0.98050103 3.0874603 -0.98050103 3.0874603 0 0 Z " fill="#27649B" transform="translate(127,97)"/>
<path d="M0 0 C0.33 0 0.66 0 1 0 C1.22262606 2.08185451 1.42757926 4.16560426 1.625 6.25 C1.74101562 7.41015625 1.85703125 8.5703125 1.9765625 9.765625 C1.99955595 12.93872091 1.69705154 14.38317244 0 17 C-0.66 17 -1.32 17 -2 17 C-1.85978195 14.35375716 -1.71310224 11.70815422 -1.5625 9.0625 C-1.52318359 8.30775391 -1.48386719 7.55300781 -1.44335938 6.77539062 C-1.11328125 1.11328125 -1.11328125 1.11328125 0 0 Z " fill="#0453A3" transform="translate(130,83)"/>
<path d="M0 0 C2.10642163 6.48359566 -0.72927538 13.8366046 -3 20 C-3.66 20 -4.32 20 -5 20 C-3.4375 3.4375 -3.4375 3.4375 0 0 Z " fill="#E4E614" transform="translate(139,73)"/>
<path d="M0 0 C2.97 0.33 5.94 0.66 9 1 C8.01 1.66 7.02 2.32 6 3 C5.67 3.99 5.34 4.98 5 6 C6.65 6.33 8.3 6.66 10 7 C10 7.66 10 8.32 10 9 C3.07 8.505 3.07 8.505 -4 8 C-4 7.67 -4 7.34 -4 7 C1.75 5.875 1.75 5.875 4 7 C4 5.35 4 3.7 4 2 C2.68 2 1.36 2 0 2 C0 1.34 0 0.68 0 0 Z " fill="#124896" transform="translate(78,43)"/>
<path d="M0 0 C0.66 0 1.32 0 2 0 C3.62630285 2.48728671 4.02271883 3.75009284 3.75 6.75 C2.88128654 10.51442497 1.96734668 14.25959284 1 18 C-0.65 18 -2.3 18 -4 18 C-4 15 -4 15 -2.6875 13.625 C-2.130625 13.08875 -1.57375 12.5525 -1 12 C0.93478871 9.80329738 0.93478871 9.80329738 2 7 C1.29614601 3.24184142 1.29614601 3.24184142 0 0 Z " fill="#60B5DE" transform="translate(27,128)"/>
<path d="M0 0 C0 0.99 0 1.98 0 3 C0.66 3.33 1.32 3.66 2 4 C1.01 4 0.02 4 -1 4 C-1 3.34 -1 2.68 -1 2 C-1.66 2 -2.32 2 -3 2 C-3 2.99 -3 3.98 -3 5 C-5.875 5.1875 -5.875 5.1875 -9 5 C-9.66 4.01 -10.32 3.02 -11 2 C-9.54494642 1.47007308 -8.08581873 0.9513211 -6.625 0.4375 C-5.81289062 0.14746094 -5.00078125 -0.14257812 -4.1640625 -0.44140625 C-2 -1 -2 -1 0 0 Z " fill="#0660AF" transform="translate(105,139)"/>
<path d="M0 0 C-0.98828125 1.48828125 -0.98828125 1.48828125 -3 3 C-5.81127043 3.21714241 -8.3883345 3.28284276 -11.1875 3.1875 C-11.93708984 3.17396484 -12.68667969 3.16042969 -13.45898438 3.14648438 C-15.30629767 3.11118539 -17.15324066 3.05737917 -19 3 C-14.39282368 -1.60717632 -6.11311035 -0.09789678 0 0 Z " fill="#F3F7F1" transform="translate(95,130)"/>
<path d="M0 0 C2.25 -0.3125 2.25 -0.3125 5 0 C8.91382777 3.58767546 9.59287177 6.80911501 10 12 C8.33333333 10.33333333 6.66666667 8.66666667 5 7 C4.071875 6.113125 3.14375 5.22625 2.1875 4.3125 C0 2 0 2 0 0 Z " fill="#125097" transform="translate(112,50)"/>
<path d="M0 0 C3.63 0 7.26 0 11 0 C10.34 1.65 9.68 3.3 9 5 C8.67 4.34 8.34 3.68 8 3 C4.05272412 2.82057837 1.4019487 2.90649311 -2 5 C-2.33 4.34 -2.66 3.68 -3 3 C-2.34 3 -1.68 3 -1 3 C-0.67 2.01 -0.34 1.02 0 0 Z " fill="#F8D661" transform="translate(116,98)"/>
<path d="M0 0 C0.66 0.66 1.32 1.32 2 2 C4.10820797 1.6814823 4.10820797 1.6814823 6 1 C6 1.66 6 2.32 6 3 C6.66 3.33 7.32 3.66 8 4 C7.01 4.33 6.02 4.66 5 5 C8.465 4.505 8.465 4.505 12 4 C11.01 5.32 10.02 6.64 9 8 C2.64285714 7.51098901 2.64285714 7.51098901 -0.4375 5.0625 C-2 3 -2 3 -2 1 C-1.34 0.67 -0.68 0.34 0 0 Z " fill="#5B457E" transform="translate(20,36)"/>
<path d="M0 0 C0.33 1.65 0.66 3.3 1 5 C-0.65 5 -2.3 5 -4 5 C-4.33 5.66 -4.66 6.32 -5 7 C-5.99 7 -6.98 7 -8 7 C-8 5.35 -8 3.7 -8 2 C-4.91190305 0.23537317 -3.76687864 0 0 0 Z " fill="#86A4C4" transform="translate(115,140)"/>
<path d="M0 0 C0.99 0.33 1.98 0.66 3 1 C3 1.66 3 2.32 3 3 C3.99 3.33 4.98 3.66 6 4 C2.48812804 6.40814077 0.27343092 7.36629408 -4 7 C-4 5.68 -4 4.36 -4 3 C-2.1875 1.1875 -2.1875 1.1875 0 0 Z " fill="#340D6F" transform="translate(51,54)"/>
<path d="M0 0 C0.99 0 1.98 0 3 0 C3.33 2.64 3.66 5.28 4 8 C6.64 8.99 9.28 9.98 12 11 C11.67 11.99 11.34 12.98 11 14 C3.82559826 11.75054387 3.82559826 11.75054387 0.9375 9.125 C-0.27744698 6.37112018 0.2477816 4.85842992 1 2 C0.67 1.34 0.34 0.68 0 0 Z " fill="#154085" transform="translate(47,144)"/>
<path d="M0 0 C0.66 0.33 1.32 0.66 2 1 C1.34 3.31 0.68 5.62 0 8 C-0.66 8 -1.32 8 -2 8 C-2.33 6.68 -2.66 5.36 -3 4 C-3 4.99 -3 5.98 -3 7 C-3.66 7 -4.32 7 -5 7 C-5 6.34 -5 5.68 -5 5 C-5.66 5 -6.32 5 -7 5 C-7 3.68 -7 2.36 -7 1 C-4.69 1.33 -2.38 1.66 0 2 C0 1.34 0 0.68 0 0 Z " fill="#70A1C7" transform="translate(64,141)"/>
<path d="M0 0 C1.65 0 3.3 0 5 0 C4.01 0.495 4.01 0.495 3 1 C3.14049518 2.47968324 3.28754826 3.95874516 3.4375 5.4375 C3.55931641 6.67306641 3.55931641 6.67306641 3.68359375 7.93359375 C3.78930815 9.98662025 3.78930815 9.98662025 5 11 C5.23363881 12.84891946 5.41303635 14.70488031 5.5625 16.5625 C5.64628906 17.57441406 5.73007813 18.58632812 5.81640625 19.62890625 C5.90728516 20.80259766 5.90728516 20.80259766 6 22 C5.01 21.67 4.02 21.34 3 21 C2.202163 14.30386804 1.87089147 7.74233419 2 1 C1.34 0.67 0.68 0.34 0 0 Z " fill="#0959A0" transform="translate(125,124)"/>
<path d="M0 0 C0.7940625 0.07863281 1.588125 0.15726562 2.40625 0.23828125 C4.5 0.6875 4.5 0.6875 6.5 2.6875 C3.83333333 3.35416667 1.16666667 4.02083333 -1.5 4.6875 C-2.24765625 4.87441406 -2.9953125 5.06132813 -3.765625 5.25390625 C-4.33796875 5.39699219 -4.9103125 5.54007812 -5.5 5.6875 C-5.83 4.0375 -6.16 2.3875 -6.5 0.6875 C-4.02756353 -0.54871824 -2.72682061 -0.29658601 0 0 Z " fill="#CA491E" transform="translate(93.5,66.3125)"/>
<path d="M0 0 C0.80015587 2.24043644 1.1619953 3.53021364 0.375 5.8125 C-1.61287151 8.97502285 -3.78647635 11.99231138 -6 15 C-6.66 14.67 -7.32 14.34 -8 14 C-7.23432134 12.41416752 -6.46222035 10.83143506 -5.6875 9.25 C-5.25824219 8.36828125 -4.82898437 7.4865625 -4.38671875 6.578125 C-3.09896854 4.18399785 -1.69084246 2.12223042 0 0 Z " fill="#353E73" transform="translate(67,68)"/>
<path d="M0 0 C0.66 0.33 1.32 0.66 2 1 C1.40832031 1.49628906 0.81664062 1.99257813 0.20703125 2.50390625 C-4.63895712 6.67003329 -8.53175088 10.62980781 -12 16 C-12.33 15.01 -12.66 14.02 -13 13 C-9.63643295 7.86330654 -4.80567001 3.75076684 0 0 Z " fill="#D44418" transform="translate(54,48)"/>
<path d="M0 0 C1.43655854 -0.08131463 2.8744483 -0.13933559 4.3125 -0.1875 C5.51326172 -0.23970703 5.51326172 -0.23970703 6.73828125 -0.29296875 C9.47851584 0.06198392 10.29171079 0.89366282 12 3 C8.98131566 4.50934217 6.32702771 4.17510672 3 4 C2.01 3.34 1.02 2.68 0 2 C0 1.34 0 0.68 0 0 Z " fill="#ECEDE1" transform="translate(66,129)"/>
<path d="M0 0 C1.32 0 2.64 0 4 0 C4 0.99 4 1.98 4 3 C5.32 2.67 6.64 2.34 8 2 C8 2.66 8 3.32 8 4 C11.3 4 14.6 4 18 4 C18 4.33 18 4.66 18 5 C8.595 5.495 8.595 5.495 -1 6 C-0.67 5.34 -0.34 4.68 0 4 C0 3.01 0 2.02 0 1 C0 0.67 0 0.34 0 0 Z " fill="#483F7C" transform="translate(66,47)"/>
<path d="M0 0 C0 4.0286247 -1.4093846 5.58261314 -4 8.546875 C-7.64958644 11.19852765 -11.70109116 10.53523964 -16 10 C-16 9.34 -16 8.68 -16 8 C-15.43152344 8.00902344 -14.86304687 8.01804687 -14.27734375 8.02734375 C-9.23606773 7.83377222 -6.53569714 7.09468398 -2.9375 3.4375 C-1.93714586 2.31011676 -0.9500945 1.17005207 0 0 Z " fill="#8BA3C3" transform="translate(114,21)"/>
<path d="M0 0 C3.3 0 6.6 0 10 0 C7.0045072 2.57945213 4.85648699 4.17360993 1 5 C0.67 5.66 0.34 6.32 0 7 C0 4.69 0 2.38 0 0 Z " fill="#FAD462" transform="translate(85,98)"/>
<path d="M0 0 C2.0650383 0.51625958 4.09864625 1.03191496 6.125 1.6875 C7.053125 1.8421875 7.053125 1.8421875 8 2 C8.66 1.34 9.32 0.68 10 0 C10.99 0 11.98 0 13 0 C12 3 12 3 9 5 C5.86347981 5.40211797 4.42630236 5.25347708 1.6875 3.625 C1.130625 3.08875 0.57375 2.5525 0 2 C0 1.34 0 0.68 0 0 Z " fill="#C8C343" transform="translate(74,159)"/>
<path d="M0 0 C1 1 2 2 3 3 C3.8353125 3.7425 3.8353125 3.7425 4.6875 4.5 C6 6 6 6 6 9 C3.36 9 0.72 9 -2 9 C-1.34 8.67 -0.68 8.34 0 8 C0 5.36 0 2.72 0 0 Z " fill="#409ED7" transform="translate(133,137)"/>
<path d="M0 0 C2.82928932 2.55071314 4.67893264 5.46621272 6.6875 8.6875 C7.31011719 9.68136719 7.93273438 10.67523438 8.57421875 11.69921875 C9.04472656 12.45847656 9.51523437 13.21773437 10 14 C9.01 14 8.02 14 7 14 C5.68359375 12.50390625 5.68359375 12.50390625 4.4375 10.5625 C2.69463071 7.76740279 2.69463071 7.76740279 0 6 C0 4.02 0 2.04 0 0 Z " fill="#CECF40" transform="translate(38,118)"/>
<path d="M0 0 C0.99 0.33 1.98 0.66 3 1 C2.125 5.75 2.125 5.75 1 8 C0.34 8 -0.32 8 -1 8 C-1 10.64 -1 13.28 -1 16 C-1.33 16 -1.66 16 -2 16 C-2 11.05 -2 6.1 -2 1 C-1.34 0.67 -0.68 0.34 0 0 Z " fill="#A47372" transform="translate(91,105)"/>
<path d="M0 0 C0 0.66 0 1.32 0 2 C-2.90600261 3.25664978 -4.79604584 4 -8 4 C-8.66 4.66 -9.32 5.32 -10 6 C-10 5.34 -10 4.68 -10 4 C-10.66 4 -11.32 4 -12 4 C-12 3.34 -12 2.68 -12 2 C-8.09971775 -0.60018816 -4.52565431 -0.15085514 0 0 Z " fill="#28277C" transform="translate(78,43)"/>
<path d="M0 0 C0.99 0.33 1.98 0.66 3 1 C2.01 2.485 2.01 2.485 1 4 C0.83300768 7.12521833 0.83300768 7.12521833 1 10 C0.34 10 -0.32 10 -1 10 C-1.66 12.64 -2.32 15.28 -3 18 C-3.33 18 -3.66 18 -4 18 C-3.48914188 11.56318772 -2.27057103 6.04057576 0 0 Z " fill="#343682" transform="translate(38,127)"/>
<path d="M0 0 C0.66 0.33 1.32 0.66 2 1 C1.07506212 4.78383679 0.60628829 6.56693694 -2.625 8.875 C-3.40875 9.24625 -4.1925 9.6175 -5 10 C-6 7 -6 7 -5.3125 5 C-3.82522999 2.73368379 -2.24230766 1.49487177 0 0 Z " fill="#163F86" transform="translate(73,63)"/>
<path d="M0 0 C7.625 0.875 7.625 0.875 11 2 C11 2.99 11 3.98 11 5 C3.375 4.125 3.375 4.125 0 3 C0 2.01 0 1.02 0 0 Z " fill="#7FA1C4" transform="translate(83,46)"/>
<path d="M0 0 C0.66 0 1.32 0 2 0 C2 0.66 2 1.32 2 2 C3.65 2 5.3 2 7 2 C7.33 1.34 7.66 0.68 8 0 C7.49396008 2.16874252 7.00016187 3.99967627 6 6 C3.69 6 1.38 6 -1 6 C-0.34 5.34 0.32 4.68 1 4 C0.34 3.67 -0.32 3.34 -1 3 C-0.67 2.01 -0.34 1.02 0 0 Z " fill="#5E4885" transform="translate(135,37)"/>
<path d="M0 0 C0.99 0 1.98 0 3 0 C3.91657981 5.38490641 4.11138159 10.54230189 4 16 C1.24072656 13.24072656 1.48216757 10.78845948 1 7 C0.67 6.67 0.34 6.34 0 6 C-0.04080783 4.00041636 -0.04254356 1.99954746 0 0 Z " fill="#D2D425" transform="translate(19,61)"/>
<path d="M0 0 C0.33 0.66 0.66 1.32 1 2 C1.66 2 2.32 2 3 2 C1.515 7.445 1.515 7.445 0 13 C-0.33 13 -0.66 13 -1 13 C-2.42857143 4.57142857 -2.42857143 4.57142857 0 0 Z " fill="#C1C043" transform="translate(133,91)"/>
<path d="M0 0 C0 0.66 0 1.32 0 2 C-0.99 2.66 -1.98 3.32 -3 4 C-3.33 4.33 -3.66 4.66 -4 5 C-3.01 5.66 -2.02 6.32 -1 7 C-3.31 7 -5.62 7 -8 7 C-8 5.68 -8 4.36 -8 3 C-8.66 2.67 -9.32 2.34 -10 2 C-8.7090864 1.66376204 -7.41723903 1.33110751 -6.125 1 C-5.40570313 0.814375 -4.68640625 0.62875 -3.9453125 0.4375 C-2 0 -2 0 0 0 Z " fill="#2F6093" transform="translate(102,68)"/>
<path d="M0 0 C0 2.64 0 5.28 0 8 C-1.32 8 -2.64 8 -4 8 C-4 5.69 -4 3.38 -4 1 C-2 0 -2 0 0 0 Z " fill="#FDEA9D" transform="translate(76,113)"/>
<path d="M0 0 C0.50789063 0.42152344 1.01578125 0.84304687 1.5390625 1.27734375 C5.63697826 4.53879356 8.57988765 6.72899438 14 7 C13.67 7.66 13.34 8.32 13 9 C10.03 8.67 7.06 8.34 4 8 C4.33 7.34 4.66 6.68 5 6 C4.175 5.38125 3.35 4.7625 2.5 4.125 C1.675 3.42375 0.85 2.7225 0 2 C0 1.34 0 0.68 0 0 Z " fill="#B7B356" transform="translate(124,37)"/>
<path d="M0 0 C1.32 0.99 2.64 1.98 4 3 C3.67 4.32 3.34 5.64 3 7 C1.35 7 -0.3 7 -2 7 C-2.125 4.625 -2.125 4.625 -2 2 C-1.34 1.34 -0.68 0.68 0 0 Z " fill="#EE8524" transform="translate(135,27)"/>
<path d="M0 0 C0 1.98 0 3.96 0 6 C-2.64 6.99 -5.28 7.98 -8 9 C-6.92337982 5.47651579 -4.40779676 0 0 0 Z " fill="#1A3D84" transform="translate(117,22)"/>
<path d="M0 0 C0.33 4.29 0.66 8.58 1 13 C0.34 13 -0.32 13 -1 13 C-1.33 9.7 -1.66 6.4 -2 3 C-3.65 3 -5.3 3 -7 3 C-6.67 2.34 -6.34 1.68 -6 1 C-3.911361 0.32624548 -2.19636905 0 0 0 Z " fill="#723E64" transform="translate(85,109)"/>
<path d="M0 0 C1.32 0 2.64 0 4 0 C4 0.66 4 1.32 4 2 C3.01 2.66 2.02 3.32 1 4 C0.67 4.99 0.34 5.98 0 7 C-1.32 7 -2.64 7 -4 7 C-4 5.35 -4 3.7 -4 2 C-3.01 2.495 -3.01 2.495 -2 3 C-1.34 2.01 -0.68 1.02 0 0 Z " fill="#D14617" transform="translate(83,80)"/>
<path d="M0 0 C0.99 0.33 1.98 0.66 3 1 C3.6875 3.0625 3.6875 3.0625 4 5 C4.66 5 5.32 5 6 5 C6 5.66 6 6.32 6 7 C6.99 6.67 7.98 6.34 9 6 C8.67 7.32 8.34 8.64 8 10 C7.34 10 6.68 10 6 10 C6 9.34 6 8.68 6 8 C5.38125 7.731875 4.7625 7.46375 4.125 7.1875 C2 6 2 6 0 3 C0 2.01 0 1.02 0 0 Z " fill="#80B3D3" transform="translate(102,52)"/>
<path d="M0 0 C1.32 0 2.64 0 4 0 C3.67 5.28 3.34 10.56 3 16 C2.67 16 2.34 16 2 16 C1.95101562 15.00097656 1.90203125 14.00195312 1.8515625 12.97265625 C1.77679688 11.68230469 1.70203125 10.39195313 1.625 9.0625 C1.55539063 7.77472656 1.48578125 6.48695312 1.4140625 5.16015625 C1.27742187 4.11730469 1.14078125 3.07445312 1 2 C0.34 1.67 -0.32 1.34 -1 1 C-0.67 0.67 -0.34 0.34 0 0 Z " fill="#3C5772" transform="translate(138,44)"/>
<path d="M0 0 C0 0.99 0 1.98 0 3 C-0.61875 3.28875 -1.2375 3.5775 -1.875 3.875 C-4.13325765 4.93720042 -4.13325765 4.93720042 -6 7 C-7.98356483 7.71408334 -9.98315437 8.38617742 -12 9 C-3.25 0 -3.25 0 0 0 Z " fill="#40156C" transform="translate(59,48)"/>
<path d="M0 0 C0.99 0 1.98 0 3 0 C3 1.98 3 3.96 3 6 C3.66 6.33 4.32 6.66 5 7 C3.35 7.66 1.7 8.32 0 9 C0 6.03 0 3.06 0 0 Z " fill="#3C1573" transform="translate(79,99)"/>
<path d="M0 0 C7.42857143 1 7.42857143 1 11 2 C11 2.66 11 3.32 11 4 C12.65 4 14.3 4 16 4 C15.34 4.66 14.68 5.32 14 6 C12.41375765 5.57316761 10.8310902 5.13303842 9.25 4.6875 C8.36828125 4.44386719 7.4865625 4.20023438 6.578125 3.94921875 C3.94227495 2.97874669 2.14592674 1.78994356 0 0 Z " fill="#295F9A" transform="translate(49,133)"/>
<path d="M0 0 C0.66 0 1.32 0 2 0 C2.66 2.31 3.32 4.62 4 7 C3.34 7 2.68 7 2 7 C1.34 7.66 0.68 8.32 0 9 C-0.66 6.69 -1.32 4.38 -2 2 C-1.34 2 -0.68 2 0 2 C0 1.34 0 0.68 0 0 Z " fill="#1C5F9B" transform="translate(33,98)"/>
<path d="M0 0 C0.8971875 0.9590625 0.8971875 0.9590625 1.8125 1.9375 C3.90810337 4.20310389 3.90810337 4.20310389 7 5 C6.67 5.99 6.34 6.98 6 8 C5.01 8 4.02 8 3 8 C2.67 7.34 2.34 6.68 2 6 C-1.02934491 5.34227572 -1.02934491 5.34227572 -4 5 C-2.68 4.67 -1.36 4.34 0 4 C0 2.68 0 1.36 0 0 Z " fill="#15529B" transform="translate(129,58)"/>
<path d="M0 0 C-1.14239817 1.33627775 -2.28901055 2.66895388 -3.4375 4 C-4.07558594 4.7425 -4.71367188 5.485 -5.37109375 6.25 C-6.17740234 7.11625 -6.17740234 7.11625 -7 8 C-7.33 8 -7.66 8 -8 8 C-8.3125 5.1875 -8.3125 5.1875 -8 2 C-4.88411016 -0.61061041 -3.93844351 -1.3128145 0 0 Z " fill="#205291" transform="translate(49,53)"/>
<path d="M0 0 C2.64 0 5.28 0 8 0 C7.67 1.98 7.34 3.96 7 6 C6.67 4.68 6.34 3.36 6 2 C5.34 2 4.68 2 4 2 C3.67 2.99 3.34 3.98 3 5 C2.34 4.67 1.68 4.34 1 4 C0.375 1.9375 0.375 1.9375 0 0 Z " fill="#8CBFDC" transform="translate(69,145)"/>
<path d="M0 0 C0.66 0.33 1.32 0.66 2 1 C1.67 1.99 1.34 2.98 1 4 C-2.57331341 5.7529462 -6.08846628 7.21769326 -10 8 C-10 7.34 -10 6.68 -10 6 C-7.8828125 4.45703125 -7.8828125 4.45703125 -5.125 2.8125 C-4.22007813 2.26207031 -3.31515625 1.71164063 -2.3828125 1.14453125 C-1.20332031 0.57798828 -1.20332031 0.57798828 0 0 Z " fill="#E8DFD9" transform="translate(82,106)"/>
<path d="M0 0 C0.66 1.32 1.32 2.64 2 4 C-2.75 8.875 -2.75 8.875 -5 10 C-4.49701212 5.59885603 -2.91227269 3.28804981 0 0 Z " fill="#1D599B" transform="translate(85,74)"/>
<path d="M0 0 C0.33 0.66 0.66 1.32 1 2 C0.02616054 3.68208635 -0.97695052 5.34738161 -2 7 C-2.69579454 9.19130534 -2.69579454 9.19130534 -3 11 C-3.66 11 -4.32 11 -5 11 C-4.125 5.25 -4.125 5.25 -3 3 C-4.32 2.67 -5.64 2.34 -7 2 C-4.69 1.34 -2.38 0.68 0 0 Z " fill="#1B5599" transform="translate(39,62)"/>
<path d="M0 0 C3.62462885 0.42597134 5.2926498 1.96337959 7.75 4.5625 C8.36359375 5.20316406 8.9771875 5.84382813 9.609375 6.50390625 C10.06828125 6.99761719 10.5271875 7.49132812 11 8 C10.67 8.66 10.34 9.32 10 10 C9.54109375 9.60167969 9.0821875 9.20335938 8.609375 8.79296875 C5.47728415 6.08857938 2.36122541 3.42008229 -1 1 C-0.67 0.67 -0.34 0.34 0 0 Z " fill="#B14F36" transform="translate(103,61)"/>
<path d="M0 0 C0.33 0.99 0.66 1.98 1 3 C-5.75 6 -5.75 6 -8 6 C-7.67 4.68 -7.34 3.36 -7 2 C-6.34 2 -5.68 2 -5 2 C-2 0 -2 0 0 0 Z " fill="#958BB4" transform="translate(67,48)"/>
<path d="M0 0 C2.02350324 3.03525486 2.32124018 4.19426202 2.625 7.6875 C2.69976562 8.49574219 2.77453125 9.30398437 2.8515625 10.13671875 C2.92503906 11.05904297 2.92503906 11.05904297 3 12 C2.01 12.495 2.01 12.495 1 13 C0.01 11.68 -0.98 10.36 -2 9 C-1.34 8.67 -0.68 8.34 0 8 C0 5.36 0 2.72 0 0 Z " fill="#C26643" transform="translate(117,86)"/>
<path d="M0 0 C0.99 0 1.98 0 3 0 C4.6875 2 4.6875 2 6 4 C5.34 4 4.68 4 4 4 C3.34 5.32 2.68 6.64 2 8 C0.23537317 4.91190305 0 3.76687864 0 0 Z " fill="#154E90" transform="translate(22,64)"/>
<path d="M0 0 C1.98 0 3.96 0 6 0 C6 1.32 6 2.64 6 4 C4.35 4.33 2.7 4.66 1 5 C0.67 3.35 0.34 1.7 0 0 Z " fill="#6EB7DF" transform="translate(81,146)"/>
<path d="M0 0 C0.33 0.66 0.66 1.32 1 2 C0.22265625 3.7265625 0.22265625 3.7265625 -0.9375 5.625 C-1.618125 6.73875 -2.29875 7.8525 -3 9 C-5.31 8.34 -7.62 7.68 -10 7 C-7 6 -7 6 -4 7 C-3.71125 6.21625 -3.4225 5.4325 -3.125 4.625 C-2 2 -2 2 0 0 Z " fill="#A3BCD4" transform="translate(87,28)"/>
<path d="M0 0 C0.66 0 1.32 0 2 0 C2 0.66 2 1.32 2 2 C2.66 2 3.32 2 4 2 C4.33 4.31 4.66 6.62 5 9 C2.5 7.3125 2.5 7.3125 0 5 C-0.3125 2.25 -0.3125 2.25 0 0 Z " fill="#E4D7C2" transform="translate(27,22)"/>
<path d="M0 0 C1.8125 0.1875 1.8125 0.1875 4 1 C5.75 3.5625 5.75 3.5625 7 6 C5.35 5.67 3.7 5.34 2 5 C1.67 5.99 1.34 6.98 1 8 C0.67 7.01 0.34 6.02 0 5 C0.66 4.34 1.32 3.68 2 3 C1.34 2.01 0.68 1.02 0 0 Z " fill="#422C71" transform="translate(38,125)"/>
<path d="M0 0 C3 1 3 1 5 4 C5.125 6.6875 5.125 6.6875 5 9 C4.01 8.34 3.02 7.68 2 7 C2 6.01 2 5.02 2 4 C1.34 4 0.68 4 0 4 C0 2.68 0 1.36 0 0 Z " fill="#E0D5C3" transform="translate(137,22)"/>
<path d="M0 0 C0.33 0.66 0.66 1.32 1 2 C0.34 2 -0.32 2 -1 2 C-1 5.3 -1 8.6 -1 12 C-2.99097846 9.01353231 -3.94124926 6.40312738 -5 3 C-3.35 2.01 -1.7 1.02 0 0 Z " fill="#2C448E" transform="translate(117,131)"/>
<path d="M0 0 C-1.125 1.5 -1.125 1.5 -3 3 C-6.1875 3.1875 -6.1875 3.1875 -9 3 C-9.33 2.34 -9.66 1.68 -10 1 C-6.52674819 -0.1577506 -3.63932552 -0.06866652 0 0 Z " fill="#F7F7D7" transform="translate(105,126)"/>
<path d="M0 0 C2.3129482 2.3129482 2.49580975 3.47904875 3.125 6.625 C3.29257812 7.44226563 3.46015625 8.25953125 3.6328125 9.1015625 C3.81457031 10.04128906 3.81457031 10.04128906 4 11 C3.01 11.495 3.01 11.495 2 12 C0.86235649 7.73383684 0 4.43513689 0 0 Z " fill="#DCE11D" transform="translate(24,82)"/>
<path d="M0 0 C0.99 0 1.98 0 3 0 C1.25 7.625 1.25 7.625 -1 11 C-0.67 7.37 -0.34 3.74 0 0 Z " fill="#26628C" transform="translate(133,83)"/>
<path d="M0 0 C0.99 0.33 1.98 0.66 3 1 C1.55746343 4.36591866 -0.33264727 6.51047079 -3 9 C-2.44271087 5.65626525 -1.64826111 2.96687001 0 0 Z " fill="#4D1563" transform="translate(41,65)"/>
<path d="M0 0 C1.98 0.66 3.96 1.32 6 2 C5.01 2.495 5.01 2.495 4 3 C4.66 4.98 5.32 6.96 6 9 C5.34 9.66 4.68 10.32 4 11 C0.71428571 3.57142857 0.71428571 3.57142857 0 0 Z " fill="#175399" transform="translate(122,62)"/>
<path d="M0 0 C2.31 0 4.62 0 7 0 C7 1.32 7 2.64 7 4 C5.68 4 4.36 4 3 4 C2.67 3.34 2.34 2.68 2 2 C1.34 2 0.68 2 0 2 C0 1.34 0 0.68 0 0 Z " fill="#74B0D9" transform="translate(88,147)"/>
<path d="M0 0 C0 0.66 0 1.32 0 2 C-0.66 2 -1.32 2 -2 2 C-2 2.66 -2 3.32 -2 4 C-6.875 2.25 -6.875 2.25 -8 0 C-2.25 -1.125 -2.25 -1.125 0 0 Z " fill="#1272BF" transform="translate(95,141)"/>
<path d="M0 0 C-0.3125 1.875 -0.3125 1.875 -1 4 C-1.99 4.66 -2.98 5.32 -4 6 C-4 5.01 -4 4.02 -4 3 C-4.66 3 -5.32 3 -6 3 C-6 2.34 -6 1.68 -6 1 C-3 0 -3 0 0 0 Z " fill="#509FCE" transform="translate(139,121)"/>
<path d="M0 0 C2.31 0 4.62 0 7 0 C6.67 0.99 6.34 1.98 6 3 C4.02 3.33 2.04 3.66 0 4 C0 2.68 0 1.36 0 0 Z " fill="#FCD765" transform="translate(100,99)"/>
<path d="M0 0 C1.98 0.66 3.96 1.32 6 2 C6 2.66 6 3.32 6 4 C7.32 4.66 8.64 5.32 10 6 C6.13304322 6 3.4911548 4.58090029 0 3 C0 2.01 0 1.02 0 0 Z " fill="#225798" transform="translate(88,49)"/>
<path d="M0 0 C0.99 0 1.98 0 3 0 C3 0.99 3 1.98 3 3 C-0.50776784 4.60355101 -3.14354879 5.22036864 -7 5 C-6 3 -6 3 -2.9375 1.875 C-1.4834375 1.441875 -1.4834375 1.441875 0 1 C0 0.67 0 0.34 0 0 Z " fill="#86789B" transform="translate(31,37)"/>
<path d="M0 0 C1.65 0.33 3.3 0.66 5 1 C4.67 2.32 4.34 3.64 4 5 C2.68 4.67 1.36 4.34 0 4 C0 2.68 0 1.36 0 0 Z " fill="#054F9A" transform="translate(58,137)"/>
<path d="M0 0 C6.15234375 0.5859375 6.15234375 0.5859375 8 1 C8.33 1.66 8.66 2.32 9 3 C6.69 2.67 4.38 2.34 2 2 C2 2.66 2 3.32 2 4 C1.34 4 0.68 4 0 4 C0 2.68 0 1.36 0 0 Z " fill="#6BBCDF" transform="translate(23,121)"/>
<path d="M0 0 C0.66 0 1.32 0 2 0 C2.25 2.25 2.25 2.25 2 5 C0 7.3125 0 7.3125 -2 9 C-1.51421457 5.87709365 -1.0013988 3.00419641 0 0 Z " fill="#DBDF1D" transform="translate(130,99)"/>
<path d="M0 0 C1.98 0.495 1.98 0.495 4 1 C3.67 2.32 3.34 3.64 3 5 C1.68 4.67 0.36 4.34 -1 4 C-0.67 2.68 -0.34 1.36 0 0 Z " fill="#034291" transform="translate(30,51)"/>
<path d="M0 0 C1.32 0 2.64 0 4 0 C4 1.65 4 3.3 4 5 C3.01 5.495 3.01 5.495 2 6 C1.01 5.67 0.02 5.34 -1 5 C-0.67 3.35 -0.34 1.7 0 0 Z " fill="#2384CB" transform="translate(73,147)"/>
<path d="M0 0 C2.475 0.495 2.475 0.495 5 1 C4.67 2.65 4.34 4.3 4 6 C3.34 6 2.68 6 2 6 C2 5.34 2 4.68 2 4 C1.34 4 0.68 4 0 4 C0 2.68 0 1.36 0 0 Z " fill="#94B7D3" transform="translate(57,142)"/>
<path d="M0 0 C0.66 0 1.32 0 2 0 C2 2.31 2 4.62 2 7 C0.68 7.33 -0.64 7.66 -2 8 C-1.34 5.36 -0.68 2.72 0 0 Z " fill="#0355A0" transform="translate(31,138)"/>
<path d="M0 0 C2.125 0.9375 2.125 0.9375 4 2 C3.67 2.99 3.34 3.98 3 5 C1.68 5 0.36 5 -1 5 C-1.33 3.68 -1.66 2.36 -2 1 C-1.34 0.67 -0.68 0.34 0 0 Z " fill="#024997" transform="translate(106,137)"/>
<path d="M0 0 C2.31 0.33 4.62 0.66 7 1 C5.71034824 2.37562854 4.37310707 3.70766393 3 5 C2.34 5 1.68 5 1 5 C0.67 3.35 0.34 1.7 0 0 Z " fill="#2697DE" transform="translate(25,123)"/>
<path d="M0 0 C0 0.33 0 0.66 0 1 C-0.969375 1.12375 -1.93875 1.2475 -2.9375 1.375 C-4.4534375 1.684375 -4.4534375 1.684375 -6 2 C-6.33 2.66 -6.66 3.32 -7 4 C-8.32 3.67 -9.64 3.34 -11 3 C-11 2.34 -11 1.68 -11 1 C-7.32589215 -0.17571451 -3.83070817 -0.07366746 0 0 Z " fill="#15519B" transform="translate(37,62)"/>
<path d="M0 0 C2.97 0.33 5.94 0.66 9 1 C7.35 2.32 5.7 3.64 4 5 C4 4.01 4 3.02 4 2 C2.68 2 1.36 2 0 2 C0 1.34 0 0.68 0 0 Z " fill="#0D3A8C" transform="translate(78,43)"/>
<path d="M0 0 C0.99 0 1.98 0 3 0 C3 1.98 3 3.96 3 6 C2.01 6 1.02 6 0 6 C0 4.02 0 2.04 0 0 Z " fill="#442478" transform="translate(36,139)"/>
<path d="M0 0 C2.86724686 0.57344937 3.8614515 0.8614515 6 3 C4 4 4 4 1 4 C0.01 3.67 -0.98 3.34 -2 3 C-1.34 2.01 -0.68 1.02 0 0 Z " fill="#0B5FAA" transform="translate(63,139)"/>
<path d="M0 0 C1.32 1.32 2.64 2.64 4 4 C3.34 4 2.68 4 2 4 C2 4.66 2 5.32 2 6 C0.35 5.67 -1.3 5.34 -3 5 C-2.01 3.35 -1.02 1.7 0 0 Z " fill="#E9E3C9" transform="translate(64,125)"/>
<path d="M0 0 C0.66 0 1.32 0 2 0 C2 1.98 2 3.96 2 6 C1.01 6.495 1.01 6.495 0 7 C-0.66 5.35 -1.32 3.7 -2 2 C-1.34 1.34 -0.68 0.68 0 0 Z " fill="#0483D8" transform="translate(30,125)"/>
<path d="M0 0 C1.98 0.99 1.98 0.99 4 2 C4 2.99 4 3.98 4 5 C4.99 5 5.98 5 7 5 C6.67 5.99 6.34 6.98 6 8 C1.125 3.375 1.125 3.375 0 0 Z " fill="#DCD895" transform="translate(39,109)"/>
<path d="M0 0 C-1.65 1.98 -3.3 3.96 -5 6 C-5 5.01 -5 4.02 -5 3 C-5.33 2.67 -5.66 2.34 -6 2 C-6 1.34 -6 0.68 -6 0 C-3 -1 -3 -1 0 0 Z " fill="#6794BC" transform="translate(47,49)"/>
<path d="M0 0 C0.66 0 1.32 0 2 0 C2.33 1.32 2.66 2.64 3 4 C2.38125 4.12375 1.7625 4.2475 1.125 4.375 C-1.19120832 4.87197356 -1.19120832 4.87197356 -3 7 C-2.38722388 4.03824877 -1.74627478 2.61941217 0 0 Z " fill="#084E9C" transform="translate(47,48)"/>
<path d="M0 0 C1.98 0.495 1.98 0.495 4 1 C3.67 2.32 3.34 3.64 3 5 C1.68 4.67 0.36 4.34 -1 4 C-0.67 2.68 -0.34 1.36 0 0 Z " fill="#9FB8D0" transform="translate(52,140)"/>
<path d="M0 0 C0.66 0.33 1.32 0.66 2 1 C2 1.99 2 2.98 2 4 C2.66 4.33 3.32 4.66 4 5 C3.01 5 2.02 5 1 5 C1 4.34 1 3.68 1 3 C0.34 3 -0.32 3 -1 3 C-1 3.66 -1 4.32 -1 5 C-1.66 5 -2.32 5 -3 5 C-2.625 3.0625 -2.625 3.0625 -2 1 C-1.34 0.67 -0.68 0.34 0 0 Z " fill="#0C59A4" transform="translate(103,138)"/>
<path d="M0 0 C0.33 1.32 0.66 2.64 1 4 C-2.465 5.485 -2.465 5.485 -6 7 C-5.1875 5.0625 -5.1875 5.0625 -4 3 C-3.01 2.67 -2.02 2.34 -1 2 C-0.67 1.34 -0.34 0.68 0 0 Z " fill="#D4D385" transform="translate(118,127)"/>
<path d="M0 0 C0.33 0.66 0.66 1.32 1 2 C1.66 2 2.32 2 3 2 C3.33 3.32 3.66 4.64 4 6 C2.68 6.33 1.36 6.66 0 7 C0 4.69 0 2.38 0 0 Z " fill="#FCE888" transform="translate(72,105)"/>
<path d="M0 0 C0.53625 0.226875 1.0725 0.45375 1.625 0.6875 C-0.025 1.0175 -1.675 1.3475 -3.375 1.6875 C-3.375 2.3475 -3.375 3.0075 -3.375 3.6875 C-4.365 4.0175 -5.355 4.3475 -6.375 4.6875 C-7.035 4.0275 -7.695 3.3675 -8.375 2.6875 C-2.95961538 -0.38942308 -2.95961538 -0.38942308 0 0 Z " fill="#BC4724" transform="translate(81.375,66.3125)"/>
<path d="M0 0 C0.33 1.32 0.66 2.64 1 4 C0.01 4.33 -0.98 4.66 -2 5 C-2.33 4.34 -2.66 3.68 -3 3 C-3.99 2.34 -4.98 1.68 -6 1 C-4.02 0.67 -2.04 0.34 0 0 Z " fill="#1D4588" transform="translate(139,45)"/>
<path d="M0 0 C-2.38573379 1.89213369 -4.07175348 3.02391783 -7 4 C-7 3.01 -7 2.02 -7 1 C-3.375 -1.125 -3.375 -1.125 0 0 Z " fill="#AB4330" transform="translate(63,45)"/>
<path d="M0 0 C3 3.75 3 3.75 3 6 C0.5625 5.1875 0.5625 5.1875 -2 4 C-2.33 3.01 -2.66 2.02 -3 1 C-2.01 0.67 -1.02 0.34 0 0 Z " fill="#5F4F7B" transform="translate(130,36)"/>
<path d="M0 0 C0.66 0 1.32 0 2 0 C1.67 0.99 1.34 1.98 1 3 C0.67 2.01 0.34 1.02 0 0 Z " fill="#DAD4CA" transform="translate(130,28)"/>
<path d="M0 0 C0.66 0 1.32 0 2 0 C2 0.66 2 1.32 2 2 C1.34 2 0.68 2 0 2 C0 1.34 0 0.68 0 0 Z " fill="#DBD3B7" transform="translate(20,28)"/>
</svg>
